<?xml version="1.0" encoding="utf-8"?>
<!-- Generator: Adobe Illustrator 27.5.0, SVG Export Plug-In . SVG Version: 6.00 Build 0)  -->
<svg version="1.1" id="Layer_1" xmlns="http://www.w3.org/2000/svg" xmlns:xlink="http://www.w3.org/1999/xlink" x="0px" y="0px"
	 viewBox="0 0 450 450" style="enable-background:new 0 0 450 450;" xml:space="preserve">
<rect style="fill:#FFFFFF;" width="450" height="450"/>
<g>
	<path d="M230.236,72.059c-0.723-0.951-4.86-1.731-3.588,1.274c0.098,0.219,0.99,0.12,0.99,0.12c0.775-0.8,1.158-0.59,2.324-0.588
		L230,72.883c0.926,0.375,1.412-0.024,1.59-0.666c1.047,1.808,2.988,3.485,4.264,5.177c0.016,0.023,0.035,0.049,0.053,0.07
		c0.09,0.122,0.178,0.245,0.26,0.367c-0.002-0.007-0.004-0.014-0.006-0.021c0.002,0.006,0.01,0.015,0.014,0.021
		c-0.012-0.029-0.027-0.057-0.039-0.085c-1.088-2.873-3.543-8.324-5.963-10.556l0.738,1.893c-0.738-1.893,0.076,0.526-0.01,0.462
		C231.166,70.546,231.176,71.651,230.236,72.059z"/>
	<path d="M249.82,81.345l0.229,0.228c-0.029,0.151-0.396,0.04-0.188,0.427c1.637-1.405,2.145-3.382,0.393-4.984
		c1.721-0.948,2.035-2.786-0.166-3.684c-0.055-2.584,2.02-1.144,2.465,0.3c0.771-1.451,1.102-3.687-0.229-5.067
		c-1.355,1.06-2.791,4.063-3.137,5.719c-0.305,1.464,0.254,2.485,0.461,3.82C249.813,79.143,249.584,80.389,249.82,81.345z"/>
	<path d="M236.754,48.261c-2.098,0.313-8.275,0.021-9.031,2.506c-0.768,4.854,3.932,1.083,5.41,0.171
		c0.951-0.587,6.061-1.284,6.684-1.265c1.641,0.05,4.023-0.055,5.373,2.578c-0.326-0.832-1.35-2.632-1.916-2.964
		C241.982,47.495,238.174,48.05,236.754,48.261z"/>
	<path d="M247.998,132.376c0.682,3.508,8.064,1.653,10.295,1.195c4.939-1.017,9.461-1.413,14.353-0.456
		c9.826,1.921,16.016,8.702,20.254,17.415c-1.412-4.186-3.445-9.355-6.346-12.699c-1.189-1.371-2.576-2.318-3.695-3.562
		c0.014-1.593,0.08-3.147,0.469-4.697c-0.641,0.895-1.5,1.441-2.299,1.956c-6.322,0.945-12.732-1.257-19.123-0.014
		c-2.998,0.583-5.713,1.286-8.896,1.088c-3.732-0.231-4.252-1.479-5.645-4.488c-0.445,2.008,1.225,3.853,2.455,5.172
		L247.998,132.376z"/>
	<path d="M214.4,77.465c0.017-0.021,0.036-0.047,0.053-0.07c1.276-1.692,3.217-3.369,4.261-5.177
		c0.18,0.642,0.665,1.041,1.592,0.666l0.036-0.019c1.167-0.002,3.07,1.57,3.153,0.663c0.261,0.227,0.164,0.014,0.261-0.205
		c1.093-2.691-2.965-2.214-3.688-1.264c-0.938-0.408-0.929-1.513-0.663-2.513c-0.086,0.064,0.942-2.452,0.867-2.355
		c-2.418,2.232-5.015,7.683-6.102,10.556c-0.012,0.029-0.028,0.057-0.04,0.085c0.003-0.006,0.011-0.014,0.014-0.021
		c-0.003,0.007-0.005,0.014-0.008,0.021C214.222,77.71,214.31,77.587,214.4,77.465z"/>
	<path d="M197.982,68.565c-1.329,1.38-0.998,3.617-0.227,5.067c0.445-1.444,2.52-2.884,2.465-0.3
		c-2.201,0.897-1.886,2.735-0.166,3.684c-1.751,1.602-1.245,3.579,0.393,4.984c0.21-0.388-0.159-0.276-0.187-0.427l0.228-0.228
		c0.235-0.956,0.008-2.203,0.171-3.241c0.209-1.335,0.768-2.356,0.46-3.82C200.773,72.628,199.339,69.625,197.982,68.565z"/>
	<path d="M205.896,51.383c0.311-0.361,0.679-0.674,1.125-0.899c0.729-0.368,1.515-0.554,2.308-0.558
		c3.075-1.078,6.731,0.866,8.067,1.707c2.682,1.688,5.044,3.966,4.278-0.887c-0.757-2.485-6.933-2.194-9.033-2.506
		c-1.42-0.211-5.195-0.653-6.487,1.139c-0.71,0.846-1.714,2.504-1.934,3.873c0.231-0.436,0.514-0.844,0.867-1.201
		C205.338,51.797,205.61,51.578,205.896,51.383z"/>
	<path d="M224.995,79.178c-1.737-0.296-2.798-1.756-5.018-1.05c-1.825,0.581-1.749,2.318-5.013,1.887
		c0.957,1.522,2.646,1.883,4.073,1.033c2.032-0.696,3.937-0.08,5.958-0.462c2.02,0.382,4.263-0.545,6.296,0.151
		c1.426,0.85,2.65,0.244,3.949-1.033c-1.979-0.212-3.404-0.996-5.229-1.576C227.793,77.422,226.732,78.882,224.995,79.178z"/>
	<path d="M217.398,82.501c-0.002,0.063,0.006,0.12,0.007,0.181C217.439,82.654,217.486,82.603,217.398,82.501z"/>
	<path d="M217.407,82.714c0-0.011-0.002-0.021-0.002-0.032C217.382,82.701,217.369,82.71,217.407,82.714z"/>
	<path d="M217.398,82.501c0.087,0.047,0.11,0.184,0.192,0.223c-0.104-0.004-0.157-0.006-0.184-0.01
		c0.064,2.9,3.191,3.765,7.443,3.562c3.941-0.188,7.043,0.081,8.059-3.775c-1.643,1.464-3.545,1.531-8.041,1.764
		C223.217,84.063,219.54,84.382,217.398,82.501z"/>
	<path d="M177.662,133.116c4.892-0.957,9.413-0.561,14.353,0.456c2.23,0.458,9.615,2.313,10.296-1.195l-1.822,0.912
		c1.23-1.319,2.901-3.164,2.454-5.172c-1.391,3.009-1.911,4.257-5.644,4.488c-3.184,0.197-5.898-0.505-8.896-1.088
		c-6.39-1.243-12.801,0.959-19.123,0.014c-0.8-0.515-1.659-1.06-2.301-1.956c0.39,1.549,0.457,3.104,0.469,4.697
		c-1.12,1.244-2.506,2.19-3.695,3.562c-2.899,3.344-4.932,8.513-6.345,12.699C161.646,141.818,167.836,135.038,177.662,133.116z"/>
	<path d="M148.407,321.172c0.124,2.384,0.331,4.058,1.885,7.659l0.304-0.608c0.521-6.771-0.577-10.329-1.31-15.538
		C149.389,316.272,148.222,317.577,148.407,321.172z"/>
	<path d="M135.226,288.211c2.639,6.211,4.577,14.749,5.08,22.482c-0.139,2.425-0.004,4.665,0.026,6.868
		c-0.021,0.315-0.036,0.635-0.063,0.941l0.063-0.932c0.036,2.605-0.078,5.162-0.975,7.918c2.507-5.413,2.833-10.088,2.364-17.315
		C141.456,302.683,138.454,294.102,135.226,288.211z"/>
	<path d="M242.006,79.705c-0.113-2.048-0.551-4.05-0.041-6.063c0.518-2.044,1.982-4.292,1.863-6.451
		c-0.943,2.226-3.262,4.971-3.49,7.319C240.502,76.142,241.385,78.175,242.006,79.705z"/>
	<path d="M240.328,74.587c0.002-0.026,0.008-0.052,0.01-0.077c-0.002-0.025-0.008-0.051-0.01-0.075V74.587z"/>
	<path d="M209.663,74.587v-0.152c-0.002,0.024-0.009,0.05-0.011,0.075C209.654,74.535,209.66,74.561,209.663,74.587z"/>
	<path d="M208.024,73.642c0.51,2.013,0.071,4.015-0.041,6.063c0.621-1.53,1.505-3.563,1.669-5.195
		c-0.228-2.348-2.547-5.093-3.49-7.319C206.042,69.35,207.508,71.597,208.024,73.642z"/>
	<path d="M214.155,42.413c1.396-0.033,3.053,0.22,4.843,0.851c0.9,0.297,1.808,0.735,2.808,1.14c0.498,0.195,1.011,0.381,1.559,0.5
		c0.544,0.121,1.148,0.141,1.723-0.016c1.139-0.329,2.088-0.933,3.047-1.263c0.961-0.354,1.916-0.576,2.828-0.723
		c1.832-0.287,3.508-0.281,4.906-0.158c1.4,0.124,2.527,0.376,3.293,0.637c0.77,0.255,1.166,0.538,1.166,0.536
		c0,0.003-0.371-0.349-1.129-0.717c-0.752-0.373-1.875-0.778-3.289-1.056c-1.412-0.275-3.115-0.437-5.01-0.255
		c-0.945,0.095-1.939,0.277-2.955,0.615c-1.023,0.324-2.026,0.922-3.007,1.198c-0.957,0.271-1.954-0.073-2.929-0.413
		c-0.964-0.356-1.929-0.769-2.86-1.018c-1.86-0.539-3.589-0.646-5.015-0.459c-1.43,0.18-2.551,0.604-3.308,0.938
		c-0.759,0.336-1.163,0.583-1.164,0.578c0,0.006,0.422-0.17,1.195-0.396C211.63,42.709,212.758,42.439,214.155,42.413z"/>
	<path d="M229.031,131.409c-2.17,1.076-5.775,1.105-7.689,0.284v0.456C222.384,136.826,228.529,135.615,229.031,131.409z"/>
	<path d="M143.885,307.566c0.766,6.088,0.766,6.088,0.607,9.113c-0.007,0.141-0.02,0.303-0.037,0.479
		c-0.027,0.286-0.067,0.623-0.113,0.983c-0.003,0.001-0.006,0.002-0.009,0.002c-0.108,0.755-0.25,1.593-0.379,2.439
		c0.02-0.003,0.038-0.008,0.057-0.01c-0.426,3.059-0.902,6.72-0.383,7.886c2.413-2.495,2.446-14.521,0.561-19.677L143.885,307.566z"
		/>
	<path d="M243.068,59.478c-5.301-5.096-13.049-1.604-13.049-1.604c1.799-2.338,7.416-2.913,11.205-1.107
		c-2.678-4.241-11.613-2.133-11.855,1.863c-0.008,0.127-0.008,0.257,0.004,0.39c0,0,0.041,0.483,0.061,0.44
		c0.043,0.39,0.205,0.743,0.432,1.057c0.102,0.174,0.227,0.341,0.369,0.499l-0.008-0.005c0.643,0.962,1.641,1.519,2.713,1.853
		c0.105,0.058,0.207,0.115,0.307,0.172c-0.039-0.035-0.074-0.074-0.113-0.109c0.707,0.2,2.789,0.933,3.473,0.991
		c-1.07-0.282-3.564-1.562-4.6-2.354c-0.248-0.4-0.346-0.445-0.465-0.771c-0.002-0.025-0.006-0.085-0.014-0.207
		c1.566,1.389,6.168,0.563,6.148,0.68c2.74-0.322,2.74-0.322,4.984-1.667C242.9,59.582,243.004,59.545,243.068,59.478z
		 M229.432,59.334c-0.004,0-0.008-0.001-0.014-0.002C229.424,59.333,229.428,59.333,229.432,59.334L229.432,59.334z M231.531,60.77
		c-0.02-0.061-0.043-0.129-0.066-0.214C231.496,60.571,231.52,60.703,231.531,60.77z M231.285,59.096
		c0.234-0.705,2.239-0.784,2.876-0.84c0.326,0.776,0.307,1.469,1.424,1.74C234.231,60.208,232.08,59.717,231.285,59.096z
		 M236.844,60.138c-0.049,0.024-0.316,0.032-0.09-0.032c0.9-0.199,1.605-0.944,1.508-1.85c0.531,0,2.105,0.46,3.027,0.997
		C240.611,59.829,237.844,60.505,236.844,60.138z"/>
	<path d="M236.755,60.106c0.025,0.013,0.061,0.021,0.09,0.032C236.864,60.129,236.852,60.117,236.755,60.106z"/>
	<path d="M212.91,59.709c0.03-0.01,0.064-0.018,0.089-0.031C212.902,59.689,212.89,59.7,212.91,59.709z"/>
	<path d="M218.12,60.586c-0.008,0.121-0.012,0.181-0.013,0.207c-0.118,0.327-0.216,0.371-0.465,0.771
		c-1.036,0.792-3.529,2.071-4.601,2.354c0.685-0.058,2.768-0.792,3.474-0.991c-0.038,0.035-0.074,0.074-0.113,0.109
		c0.099-0.057,0.202-0.114,0.306-0.172c1.074-0.333,2.07-0.89,2.715-1.853l-0.009,0.005c0.144-0.158,0.268-0.325,0.368-0.499
		c0.228-0.314,0.389-0.667,0.433-1.057c0.02,0.043,0.061-0.44,0.061-0.44c0.34-4.244-6.878-6.5-11.852-2.253
		c3.79-1.806,9.407-1.231,11.205,1.107c0,0-7.792-3.481-13.048,1.604c0.064,0.067,0.167,0.104,0.408,0.122
		c2.244,1.344,2.244,1.344,4.984,1.667C211.953,61.148,216.555,61.975,218.12,60.586z M220.216,59.333c0.004,0,0.009,0,0.014-0.001
		C220.226,59.333,220.22,59.334,220.216,59.333L220.216,59.333z M218.116,60.77c0.012-0.067,0.037-0.199,0.068-0.214
		C218.159,60.641,218.138,60.709,218.116,60.77z M215.597,58.968c0.402-0.296,0.292-1.059,0.292-1.059
		c0.639,0.065,1.898,0.311,2.545,0.892c-0.694,0.565-2.465,0.977-3.726,0.943C215.428,59.248,215.428,59.248,215.597,58.968z
		 M211.62,57.94c-0.098,0.876,0.48,1.546,1.379,1.739c0.226,0.062-0.039,0.054-0.089,0.031c-0.999,0.354-3.801-0.253-4.479-0.811
		C209.352,58.379,210.554,58.327,211.62,57.94z"/>
	<path d="M205.251,59.62c-0.092-0.027-1.031-0.727-2.062-4.252c0.182,1.287,0.551,7.055,1.031,8.169
		C204.277,62.628,204.221,59.811,205.251,59.62z"/>
	<path d="M213.398,78.431c-3.141,4.782-0.94,7.873,1.567,9.566c0,0-1.722-2.729-1.841-4.903
		C213.02,81.225,213.398,78.431,213.398,78.431z"/>
	<path d="M245.057,59.62c1.031,0.191,0.975,3.008,1.031,3.917c0.48-1.114,0.85-6.882,1.029-8.169
		c-0.076,0.262-0.371,1.16-1.16,2.606c0,0-0.752,0.919-1.164,1.646H245.057z"/>
	<path d="M237.186,83.094c-0.121,2.173-1.842,4.903-1.842,4.903c2.508-1.692,4.707-4.784,1.566-9.566
		C236.91,78.431,237.287,81.225,237.186,83.094z"/>
	<path d="M220.094,96.011l0.259,0.13c1.044,0.252,2.564,0.898,3.589,0.397c1.069-0.521,0.621-1.2,2.077-1.278
		c1.064-0.058,1.453,1.308,2.621,1.272c0.779-0.024,3.344-0.624,3.879-1.253c-3.488,0-3.936-1.521-6.213-1.521
		C224.043,93.757,222.154,95.985,220.094,96.011z"/>
	<path d="M224.86,40.093c2.524,0,4.571-0.203,4.571-0.453s-2.047-0.453-4.571-0.453c-2.526,0-4.573,0.203-4.573,0.453
		S222.334,40.093,224.86,40.093z"/>
	<path d="M422.441,324.298c-1.031-0.277-3.432-0.933-6.094-1.658c-0.256-0.07-0.518-0.141-0.777-0.212
		c0.141-2.507,0.186-4.905,0.123-7.156c-0.287-10.402-2.69-16.477-6.949-17.567l-3.195-0.819c-2.074-0.533-4.742-1.217-7.412-1.902
		c-0.387-9.036-2.377-15.229-6.5-16.287c-1.863-0.478-6.938-1.777-11.893-3.048c-0.566-7.3-2.363-11.384-5.379-12.156l-19.742-5.064
		c-0.33-0.084-0.674-0.128-1.02-0.128c-9.004,0-21.963,30.331-30.676,61.369c-1.402-0.296-2.807-0.591-4.215-0.874
		c-0.262-1.365-0.564-2.691-0.764-3.919c-0.426-2.616-0.994-4.905-1.441-7.247c-0.232-1.526-0.391-3.107-0.393-4.854
		c-0.006-3.714,2.064-8.605,2.877-12.029c3.201-10.532,7.156-17.37,7.147-30.108c-0.002-3.982-0.447-7.596,0.111-11.39
		c0.209-1.414,0.512-2.816,0.828-4.226c0.529-2.349,1.1-4.718,1.342-7.189c0.77-7.928,0.307-15.314-2.623-22.758
		c-0.91-2.315-1.584-4.632-1.982-6.836c0.061-0.364,0.119-0.724,0.174-1.08c0.166-1.066,0.293-2.086,0.328-3.019
		c0.223-5.842-0.301-11.319-1.355-16.858c-1.02-5.358-1.873-11.405-4.098-16.427c-1.252-2.823-4.99-6.691-6.584-9.922
		c0.074-8.348-1.928-17.875-6.822-23.554c-2.965-3.442-6.512-5.975-10.484-7.756c-3.043-1.423-4.998-2.172-8.289-2.776
		c-5.523-12.682-25.647-22.251-34.801-22.936c-0.053-0.457-0.094-0.917-0.125-1.381c-0.051-0.038-0.105-0.075-0.154-0.113
		c-0.057-0.437-0.113-0.873-0.178-1.305c-0.705-4.831-2.504-11.413-0.27-16.072c0.643-0.353,1.221-0.927,1.625-1.642
		c1.182-2.09,0.568-4.735,0.9-7.074c0.352-2.481,1.742-4.681,1.605-7.278c-0.08-1.531-0.121,1.203-0.08-1.531
		c0.031-1.939-0.973-3.29-2.285-2.591c-0.104-3.528-0.461-6.399-0.824-10.002c-0.35-3.46-1.277-8.139-2.406-11.556
		c-2.574-7.801-10.166-11.032-16.43-13.429c-4.23-1.62-13.167-1.879-18.244,0.082c-6.256,2.416-11.159,6.976-13.808,13.348
		c-1.381,3.323-2.651,8.096-2.999,11.556c-0.363,3.604-0.722,6.474-0.824,10.002c-1.312-0.698-2.316,0.652-2.286,2.591
		c0.042,2.734,0,0-0.08,1.531c-0.136,2.598,1.255,4.797,1.606,7.278c0.332,2.339-0.282,4.984,0.9,7.074
		c0.404,0.714,0.982,1.289,1.626,1.642c2.234,4.659,0.434,11.241-0.271,16.072c-0.063,0.433-0.122,0.868-0.177,1.305
		c-0.002,0.001-0.003,0.002-0.004,0.003c0.135,0.165,0.208,0.386,0.138,0.66c-0.077,0.307-0.169,0.603-0.252,0.906
		c-11.071,0.709-18.482,5.818-23.536,9.502c-6.039,4.401-11.862,12.052-12.685,13.359c-3.289,0.604-3.985,1.352-7.026,2.775
		c-3.975,1.782-7.523,4.314-10.488,7.757c-4.894,5.679-6.896,15.206-6.823,23.554c-1.592,3.231-5.331,7.1-6.582,9.922
		c-2.226,5.022-3.079,11.068-4.1,16.427c-1.055,5.539-1.578,11.016-1.355,16.858c0.048,1.244,0.258,2.643,0.503,4.099
		c-0.398,2.204-1.073,4.521-1.984,6.836c-2.929,7.444-3.392,14.831-2.621,22.758c0.385,3.955,1.614,7.645,2.168,11.415
		c0.559,3.794,0.115,7.407,0.112,11.39c-0.01,15.01,1.812,16.326,7.851,31.669c0.813,3.424,2.177,6.755,2.173,10.469
		c-0.006,5.188-1.338,8.961-2.142,13.905c-0.199,1.226-0.501,2.55-0.762,3.911c-1.41,0.284-2.814,0.579-4.219,0.876
		c-8.712-31.036-21.67-61.363-30.673-61.363c-0.347,0-0.69,0.044-1.02,0.128l-19.743,5.063c-3.017,0.773-4.813,4.857-5.379,12.156
		c-4.956,1.271-10.029,2.571-11.894,3.048c-4.121,1.058-6.11,7.252-6.499,16.288c-2.67,0.685-5.338,1.37-7.412,1.902l-3.195,0.819
		c-4.26,1.091-6.663,7.165-6.949,17.566c-0.061,2.251-0.017,4.649,0.123,7.157c-0.259,0.07-0.521,0.142-0.776,0.212
		c-2.662,0.726-5.064,1.38-6.094,1.657c-7.121,1.941-7.336,17.939-3.429,32.285c4.138,15.219,11.684,26.263,17.943,26.263
		c0.468,0,0.93-0.062,1.37-0.182c0.897-0.241,3.872-1.05,6.897-1.873c4.965,9.239,10.243,14.889,14.659,14.889
		c0.454,0,0.903-0.057,1.336-0.167l10.076-2.588c4.591,8.087,9.265,13.251,13.394,13.251c0.41,0,0.815-0.05,1.207-0.151
		c1.546-0.398,7.431-1.908,12.525-3.214c3.031,4.27,5.93,6.754,8.505,6.754c0.347,0,0.69-0.044,1.02-0.128l21.02-5.392l-0.085-0.216
		c3.573-2.272,4.976-10.39,4.158-24.228c-0.695-11.761-2.972-26.338-6.5-41.844c0.833,0.609,1.961,1.067,3.109,1.422
		c1.049,0.323,2.112,0.561,2.971,0.753c0.023,0.005,0.044,0.003,0.067,0.008c1.074,0.214,2.099-0.137,3.07-0.428
		c0.675-0.202,1.326-0.372,1.945-0.294c0,0,0.136,0.886,1.232,1.551c0.443,0.27,1.038,0.504,1.851,0.628
		c1.4,0,2.383-0.868,2.528-1.604c1.438-0.24,4.472,3.263,6.418-0.934c0.016-0.034,0.032-0.065,0.048-0.101
		c0.064,0.012,0.121,0.021,0.183,0.033c3.262,0.619,3.915-0.407,5.539-3.167c0.818-1.39,2.778-3.594,3.439-5.51
		c22.59-3.146,42.326-4.171,65.859-4.171c14.389,0,32.221,0.063,46.394,1.279c3.234,0.406,6.475,0.836,9.709,1.294
		c0.723,1.866,2.574,3.963,3.363,5.304c1.227,2.083,1.898,3.179,3.555,3.324c0.582,0.051,1.279-0.012,2.166-0.191
		c1.943,4.36,5.02,0.792,6.467,1.035c0.147,0.736,1.129,1.604,2.529,1.604c0.166-0.026,0.324-0.056,0.473-0.09
		c0.51-0.117,0.92-0.278,1.252-0.463c1.213-0.672,1.357-1.625,1.357-1.625c1.529-0.194,3.234,1.123,5.082,0.713
		c0.859-0.19,1.922-0.43,2.973-0.754c1.146-0.354,2.275-0.811,3.107-1.42c-3.527,15.505-5.805,30.083-6.5,41.843
		c-0.818,13.838,0.586,21.957,4.158,24.229l-0.086,0.215l21.022,5.393c0.33,0.084,0.674,0.127,1.02,0.127
		c2.576,0,5.475-2.484,8.504-6.754c5.096,1.307,10.98,2.815,12.525,3.214c0.393,0.101,0.799,0.151,1.209,0.151
		c4.127,0,8.803-5.164,13.395-13.25l10.074,2.587c0.434,0.111,0.885,0.167,1.338,0.167c4.416,0,9.693-5.649,14.658-14.889
		c3.025,0.822,6,1.632,6.898,1.874c0.438,0.12,0.9,0.181,1.367,0.181c6.26,0,13.807-11.044,17.943-26.263
		C429.775,342.237,429.563,326.238,422.441,324.298z M398.191,300.078c0-0.002,0-0.003,0-0.003c0.004-0.216,0.008-0.43,0.01-0.642
		l0,0c0.008-0.688,0.01-1.368,0.002-2.03c2.449,0.63,4.859,1.249,6.766,1.738l3.195,0.82c1.734,0.443,4.139,6.392,5.135,13.748
		c0,0,0,0,0,0.001c-3.063-11.247-5.543-12.938-15.096-14.278l-0.002,0.001C398.199,299.647,398.197,299.862,398.191,300.078
		c0.055,0.276,0.102,0.536-0.006,0.525C398.189,300.427,398.191,300.254,398.191,300.078z M397.467,311.555
		c0.043,0.12,0.014,0.179-0.022,0.211C397.451,311.696,397.461,311.625,397.467,311.555z M391.059,280.952
		c1.646,0.423,3.75,8.569,4.563,12.119c0,0.002,0,0.004,0,0.006c-3.211-12.667-10.877-11.392-15.686-12.865
		c0-0.058-0.002-0.111-0.004-0.17c0.002-0.96-0.008-0.974-0.043-1.953C384.607,279.299,389.285,280.499,391.059,280.952z
		 M373.787,265.748c0.143,0.036,0.287,0.095,0.43,0.175c0,0.001,0.002,0.002,0.002,0.002c0.143,0.08,0.283,0.183,0.422,0.308
		c0,0,0,0.001,0.002,0.002c0.836,0.758,1.602,2.347,2.143,4.956c-0.133-0.055,0.57,5.06,0.768,7.146
		c0.01,0.287,0.021,0.574,0.027,0.871c-1.908-15.112-12.85-14.116-18.795-15.608c-0.295-1.162-0.348-1.036-0.768-1.903
		L373.787,265.748z M343.494,272.014c-9.602,19.927-13.521,33.31-16.947,48.426c-0.445-0.098-0.895-0.189-1.34-0.285
		C331.084,299.126,337.766,282.333,343.494,272.014z M338.459,325.631c0.209,1.417,0.223,2.913,0.08,4.369
		c-0.152,0.514-0.307,1.03-0.459,1.545c-0.037,0.125-0.074,0.251-0.111,0.377c-3.418-0.783-6.867-1.61-10.35-2.34
		c-2.506-0.53-5.021-0.995-7.541-1.436c-0.273-1.942-0.623-3.715-0.74-4.721l-0.152,1.181c0.108-1.102,0.057-2.232-0.08-3.364
		C325.623,322.568,332.078,324.036,338.459,325.631z M319.111,325.172l-0.098,0.771c-0.008-0.039-0.016-0.079-0.022-0.119
		C319.039,325.609,319.08,325.392,319.111,325.172z M198.159,82.308c-1.094-1.911-0.869-4.007-1.089-6.202
		c-0.232-2.33-0.974-4.206-1.367-6.367c-0.424-2.34,0.741-2.981,2.879-3.022c0.37,0.444,0.664,0.677,1.364,0.469
		c-0.878-2.968-0.462-6.188-0.148-9.306c0.725-7.193,1.604-14.112,7.067-19.542c3.279-3.259,7.776-5.458,13.928-6.669
		c7.524-1.373,17.92,1.974,22.647,6.669c5.463,5.429,6.09,9.979,6.814,17.171c0.314,3.118,0.982,8.708,0.105,11.676
		c0.701,0.208,0.992-0.025,1.363-0.469c2.139,0.041,3.303,0.682,2.879,3.022c-0.393,2.161-1.133,4.037-1.367,6.367
		c-0.221,2.195,0.006,4.291-1.088,6.202c-0.787,1.374-3.598,3.849-4.379,1.088l-0.063,0.188c-0.57-3.062,0.061-6.447,0.842-10.826
		c1.393-7.815-1.184-9.342-1.184-9.342c2.092,5.928-2.211,10.581-1.885,16.345c0.057,1.011,0.271,2.011,0.504,3.02
		c0.023,3.942-0.289,9.006-3.33,9.941c0.832-3.722-0.568-8.228-0.568-11.904c0,5.245,0.238,9.57-3.865,13.278
		c-0.721,0.386-11.572,7.215-24.088,1.182c-5.934-1.521-5.702-13.178-5.702-14.46c0,0.925-1.79,8.932-0.56,12.702
		c-2.145-1.633-3.669-3.987-4.241-6.599c0.075-2.503,1.066-4.801,1.198-7.16c0.326-5.765-3.978-10.417-1.886-16.345
		c0,0-1.391,2.127-0.716,10.036c0.416,4.868,0.944,7.07,0.375,10.131l-0.062-0.188C201.756,86.157,198.946,83.682,198.159,82.308z
		 M141.473,153.323c0.921-6.225,4.662-13.218,9.357-17.542c2.232-2.056,4.792-3.911,7.511-5.285
		c1.145-0.579,2.493-1.272,3.697-1.702c0.403-0.144,0.93-0.215,1.463-0.29c0.478,0.035,0.967,0.246,1.423,0.826
		c0.015-0.092,0.033-0.17,0.013,0.015c0.001-0.001,0.001-0.001,0.001-0.002v0.002c0.164-0.484,0.353-0.953,0.563-1.409
		c0.047-0.036,0.091-0.074,0.132-0.116v-0.158c0.198-0.409,0.417-0.804,0.649-1.191c0.029-0.049,0.06-0.098,0.09-0.146
		c0.734-1.191,1.623-2.278,2.627-3.267c0.182-0.325,0.379-0.642,0.582-0.955c3.124-3.459,7.344-6.885,11.488-9.395
		c7.097-4.302,13.063-5.607,17.171-5.955c-0.514,5.308-1.005,10.728-3.179,15.581c3.854-5.314,3.953-12.309,5.205-18.435
		c1.21-5.917,1.712-13.205,1.667-18.818c0.614-0.046,0,0,0.515-0.586c-0.068,0.471-0.12,0.939-0.143,1.406
		c-0.217,4.491,1.4,8.233,4.058,11.196c1.269,3.652,2.344,7.52,4.149,11.13c2.641,5.286,6.992,12.67,7.289,18.617
		c0.006-4.864-0.757-9.159-2.897-13.593c-0.836-1.731-1.85-3.535-2.814-5.389c-3.022-7.615-2.373-10.116,4.638-4.952
		c5.594,4.121,6.252,4.577,9.58,4.707c3.59,0.14,8.697-7.066,11.016-7.066c1.785,0,0.252,7.753-0.689,10.302
		c-0.434,0.813-0.85,1.613-1.229,2.398c-2.141,4.434-2.902,8.729-2.898,13.593c0.299-5.947,4.648-13.331,7.291-18.617
		c1.805-3.611,2.879-7.479,4.148-11.13c2.658-2.962,4.275-6.705,4.057-11.196c-0.021-0.467-0.074-0.936-0.143-1.406
		c0.516,0.586-0.098,0.54,0.516,0.586c-0.045,5.613,0.457,12.901,1.666,18.818c1.252,6.126,1.352,13.12,5.207,18.435
		c-2.174-4.853-2.666-10.273-3.18-15.581c4.107,0.347,10.074,1.653,17.172,5.955c4.289,2.6,8.662,6.18,11.814,9.763
		c0.295,0.38,0.576,0.772,0.836,1.184c0.824,0.887,1.559,1.846,2.176,2.882c0.012,0.021,0.027,0.042,0.039,0.063
		c0.203,0.346,0.395,0.699,0.57,1.062v0.158c0.039,0.041,0.084,0.08,0.131,0.116c0.211,0.457,0.4,0.925,0.565,1.409
		c-0.02-0.185-0.002-0.108,0.012-0.015c0.457-0.58,0.945-0.791,1.424-0.826c0.535,0.074,1.061,0.146,1.465,0.29
		c1.203,0.43,2.551,1.124,3.695,1.702c2.721,1.374,5.279,3.229,7.512,5.285c4.695,4.324,8.436,11.316,9.357,17.542
		c1.348,9.11-0.195,19.365-5.879,26.724c-1.086,1.408-2.107,1.972-3.104,2.007c-2.193,0.076-4.277-2.41-6.736-4.102
		c-2.691-1.854-5.133-4.071-7.467-6.335c-2.699-2.617-4.57-5.817-7.152-8.422c0.768,3.082,2.002,6.02,2.926,9.049
		c0.543,1.784,1.213,3.569,1.484,5.417c0.096,0.631,0.086,1.316,0.098,1.997c0.006,0.227,0.012,0.454,0.025,0.677
		c-0.236,0.381-0.455,0.774-0.668,1.172c-0.051,0.101-0.103,0.201-0.156,0.302c-0.182,0.355-0.354,0.715-0.52,1.082
		c-0.022,0.049-0.045,0.097-0.066,0.146c-0.166,0.378-0.326,0.761-0.475,1.152c-5.25,4.244-12.289,7.464-18.605,8.579
		c0.26-0.007,0.516-0.025,0.772-0.046c-0.084,0.014-0.162,0.033-0.244,0.046c0.135-0.001,0.264-0.006,0.396-0.008
		c-0.014,0.003-0.027,0.006-0.043,0.008c6.361-0.036,10.656-1.43,16.225-3.006c-0.094,0.531-0.174,1.068-0.244,1.608
		c-0.02,0.148-0.037,0.297-0.055,0.445c-0.029,0.247-0.063,0.493-0.088,0.742c-10.709,4.284-37.82,4.648-47.584-5.44
		c-1.363-2.891-2.477-6.014-3.281-9.218c-0.547-3.628-0.652-7.331-0.342-10.896c0.363-4.153,0.326-8.396,1.133-12.531
		c0.586-2.992,1.717-5.115,3.207-7.744c1.395-2.456,1.852-4.889,4.936-7.839c-5.324,2.684-11.314,12.826-11.969,13.945
		c-0.653-1.119-3.194-4.66-5.523-8.414c-3.883-5.098-6.114-5.362-6.731-5.825c2.735,2.925,4.314,6.026,5.955,8.932
		c1.486,2.631,1.477,3.953,2.063,6.945c0.808,4.135,0.77,8.378,1.134,12.531c0.311,3.565,0.204,7.268-0.342,10.896
		c-0.805,3.204-1.919,6.327-3.282,9.218c-9.763,10.089-36.874,9.724-47.583,5.44c-0.026-0.252-0.06-0.501-0.09-0.752
		c-0.018-0.143-0.033-0.286-0.052-0.429c-0.072-0.541-0.151-1.081-0.245-1.614c5.567,1.576,9.863,2.97,16.223,3.006
		c-0.014-0.002-0.028-0.005-0.043-0.008c0.133,0.002,0.262,0.007,0.397,0.008c-0.082-0.014-0.161-0.032-0.243-0.046
		c0.255,0.021,0.511,0.04,0.77,0.046c-6.316-1.114-13.354-4.335-18.604-8.579c-0.15-0.393-0.311-0.778-0.479-1.159
		c-0.018-0.041-0.038-0.08-0.056-0.121c-0.168-0.376-0.346-0.747-0.533-1.11c-0.048-0.095-0.097-0.19-0.147-0.285
		c-0.213-0.4-0.434-0.796-0.671-1.18c0.056-0.896-0.002-1.833,0.123-2.674c0.272-1.849,0.942-3.633,1.485-5.417
		c0.923-3.03,2.157-5.968,2.926-9.049c-2.583,2.605-4.454,5.805-7.153,8.422c-2.335,2.264-4.775,4.481-7.467,6.335
		c-2.458,1.692-4.543,4.177-6.736,4.102c-0.998-0.035-2.017-0.599-3.104-2.007C141.669,172.689,140.123,162.433,141.473,153.323z
		 M291.83,231.578c1.34,1.386,2.441,2.624,3.266,3.934c-1.4,10.63-3.756,20.159-2.217,31.505c0.65,4.808,1.656,10.393,2.561,16.07
		c-0.008,0.011-0.014,0.021-0.021,0.032c0.361,2.34,0.691,4.68,0.969,6.977c-0.301,4.094-0.918,8.332-6.092,11.396
		c-2.156,1.277-3.801,5.661-5.393,9.443c-0.412,0.728-0.803,1.461-1.162,2.184c-0.037-0.004-0.074-0.009-0.111-0.014
		c0.021,0.047,0.029,0.1,0.045,0.148c-0.072,0.148-0.141,0.29-0.211,0.438c-0.664-0.135-1.488-0.146-2.082-0.119
		c0.494-1.315,1.08-2.592,1.732-3.836c1.301-4.005,2.545-6.665,5.477-9.851c-0.336-1.353-3.266-10.749-4.809-15.753
		c-3.176-10.277-9.426-19.395-7.371-23.445c1.291-2.544,3.205-8.333,4.426-10.985c2.164-4.701,1.212-8.743,1.831-10.367
		c2.314-3.327,5-7.667,7.333-11c-0.119,0.109-0.297,0.419,0,0c0.021,0.021,1.787,3.199,1.807,3.221
		c-0.074,0.093-0.154,0.193-0.242,0.303C291.625,231.801,291.719,231.701,291.83,231.578z M258.328,272.41
		c-5.326,1.075-12.043,1.794-17.445,1.855c10.248-1.584,19.859-5.893,30.318-7.713c-0.889-2.332,0.018-4.688-0.201-7.553
		c-10.397,2.64-24.619,6.842-36.529,6.842c7.1-1.358,12.07-2.549,17.994-3.649c4.791-0.891,17.879-5.099,22.301-6.276
		c0,0,0,0-1.145,3.612l0,0c0.33,1.969-1.797,4.829-1.207,6.822c0.092-0.015,0.184-0.033,0.275-0.046l0.834,2.652
		c-0.094,0.007-0.178,0.018-0.271,0.026c2.473,7.305,6.123,14.582,8.844,21.085c-2.67-5.267-5.297-10.848-7.971-16.172
		c-0.629-1.253-1.285-2.97-1.971-4.804C266.262,269.77,263.223,271.422,258.328,272.41z M210.447,274.266
		c-5.401-0.061-12.118-0.78-17.443-1.855c-4.896-0.988-7.936-2.641-13.828-3.317c-0.686,1.834-1.341,3.551-1.971,4.804
		c-2.674,5.324-5.3,10.905-7.97,16.172c2.72-6.503,6.371-13.78,8.844-21.085c-0.092-0.009-0.177-0.02-0.271-0.026l0.833-2.652
		c0.093,0.013,0.184,0.031,0.277,0.046c0.589-1.993-0.708-4.003-1.208-6.822l0,0c-1.144-3.612-1.144-3.612-1.144-3.612
		c4.423,1.178,17.51,5.386,22.3,6.276c5.925,1.101,10.895,2.291,17.992,3.649c-11.908,0-25.961-4.452-36.358-7.092
		c1,3.25,0.518,5.471-0.371,7.803C190.589,268.373,200.201,272.682,210.447,274.266z M167.277,314.789
		c-0.404,0.049-0.811,0.092-1.216,0.142c-1.911-4.069-3.764-10.1-6.356-11.635c-5.174-3.064-5.791-7.304-6.092-11.398
		c1.02-8.486,2.827-17.578,3.816-24.881c1.538-11.346-0.816-20.875-2.217-31.505c1.084-1.72,2.621-3.303,4.588-5.279
		c0.439-0.441,0.854-0.891,1.265-1.34c0.542,0.598,6.208,8.622,6.554,9.295c0.857,1.668,1.264,4.997,1.853,6.595
		c1.01,2.739,6.945,10.021,5.047,19.294c-0.471,2.305-5.725,15.278-7.296,20.454c-1.547,5.093-5.99,13.251-6.53,16.707
		C163.098,303.721,166.128,308.915,167.277,314.789z M179.275,207.352c1.008-2.149,3.037-6.854,6.908-6.354c0.002,0,0.004,0,0.005,0
		c0,0-0.001,0-0.001,0.001c-4.27,5.62-5.87,11.2-4.844,14.397c0.59,1.838,5.855,2.985,11.292,4.743c0,0-7.801,2.462-6.634,6.672
		c1.048,3.777,0.697,6.544,9.009,8.127c1.327,0.253,0,0-3.083,1.239c-2.925,1.176,2.573,6.436,2.2,8.444
		c-0.461-2.225-5.548-6.301-7.415-8.16c-1.903-1.895-5.788-2.697-7.438-5.834c5.916,3.137,5.353-7.837,2.804-10.104
		c-4.948-0.004-10.489-6.166-12.18-10.01c-0.146-0.333-0.274-0.655-0.36-0.948c0.168,0.104,0.326,0.192,0.489,0.288
		C174.657,212.568,177.076,212.042,179.275,207.352z M209.333,240c-7.919,1.277-11.94,2.733-11.94-0.224c0,0,5.34-4.163,13.36-4.163
		c10.679,0,12.991,0.324,11.284,11.878C222.038,247.491,221.342,238.064,209.333,240z M209.652,228.5
		c-7.997,0.628-17.017,0.539-17.017-2.418c0-5.496,7.757-5.409,15.778-5.409c8.021,0,16.566-1.878,14.047,11.907
		C222.461,232.58,219.71,227.711,209.652,228.5z M207.903,214c-9.041,0-18.648,3.667-18.648-1.668c0-3.512,2.765-7.724,7.936-11.028
		c2.685-1.715,6.005-3.189,9.95-4.184c3.409-0.86,6.567-1.557,9.158-1.449c4.07,0.169,6.733,2.332,6.733,9.019
		C223.032,215.568,216.943,214,207.903,214z M234.58,196.044c2.779-0.434,6.383,0.343,10.324,1.337
		c3.793,0.957,7.012,2.355,9.643,3.986c5.371,3.332,8.244,7.644,8.244,11.226c0,5.335-6.458,0.906-15.499,0.906
		s-18.278,2.33-18.278-8.549C229.014,198.928,231.176,196.576,234.58,196.044z M280.713,211.91c-2.23,3.776-7.082,8.61-11.461,8.612
		c-2.551,2.267-3.113,13.241,2.803,10.104c-1.648,3.137-5.533,3.939-7.438,5.834c-1.867,1.859-6.951,5.936-7.414,8.16
		c-0.373-2.009,5.127-7.269,2.199-8.444c-3.082-1.239-4.408-0.986-3.082-1.239c8.311-1.583,7.961-4.35,9.01-8.127
		c1.168-4.21-6.635-6.672-6.635-6.672c5.436-1.758,10.701-2.905,11.291-4.743c1.027-3.197-0.572-8.777-4.844-14.398
		c3.875-0.506,5.904,4.205,6.912,6.354c2.049,4.368,4.289,5.125,8.324,3.015c0.451-0.235,0.916-0.496,1.412-0.802
		C281.592,210.245,281.219,211.05,280.713,211.91z M244.412,220.673c8.021,0,15.777-0.087,15.777,5.409
		c0,2.957-8.356,2.546-16.354,1.918c-10.059-0.789-13.472,4.58-13.472,4.58C227.844,218.795,236.391,220.673,244.412,220.673z
		 M243.084,235.611c6.416-0.111,12.175,2.946,12.435,4.191c0.604,2.895-3.847,0.739-11.852,0.198
		c-12.771-0.863-12.88,7.491-12.88,7.491C229.08,235.938,232.406,235.797,243.084,235.611z M281.102,314.335
		c0.154,0.037,0.316,0.081,0.484,0.127c-0.168-0.019-0.338-0.04-0.51-0.059C281.084,314.381,281.094,314.358,281.102,314.335z
		 M272.555,190.134c-0.996,0.402-2.01,0.764-3.041,1.091l-0.002,0.001c0.91-0.32,1.82-0.654,2.729-0.979
		C272.346,190.209,272.449,190.17,272.555,190.134z M177.752,190.133c1.015,0.359,2.028,0.735,3.046,1.092
		C179.766,190.898,178.751,190.536,177.752,190.133z M130.895,323.042c-0.136,1.134-0.188,2.268-0.08,3.372l-0.153-1.185
		c-0.116,1.006-0.466,2.777-0.74,4.72c-2.519,0.441-5.036,0.907-7.542,1.437c-3.48,0.73-6.93,1.557-10.349,2.341
		c-0.037-0.122-0.073-0.246-0.109-0.368c-0.153-0.516-0.308-1.035-0.46-1.552c-0.143-1.455-0.128-2.954,0.081-4.37
		C117.945,325.835,124.396,324.366,130.895,323.042z M131.008,327.629c-0.007,0.04-0.014,0.079-0.021,0.119l-0.101-0.783
		C130.92,327.189,130.96,327.41,131.008,327.629z M124.792,321.953c-0.446,0.098-0.894,0.189-1.34,0.286
		c-3.425-15.114-7.345-28.497-16.944-48.42C112.235,284.138,118.916,300.928,124.792,321.953z M72.448,280.14
		c0.196-2.085,0.9-7.198,0.766-7.145c0.542-2.609,1.307-4.198,2.143-4.955c0.002-0.001,0.002-0.001,0.003-0.002
		c0.139-0.125,0.279-0.228,0.421-0.309c0.001,0,0.002-0.001,0.003-0.001c0.142-0.08,0.286-0.138,0.429-0.176l15.769-4.052
		c-0.418,0.867-0.473,0.741-0.766,1.903c-5.947,1.492-16.887,0.496-18.797,15.608C72.427,280.714,72.438,280.426,72.448,280.14z
		 M54.38,294.877c0.813-3.551,2.914-11.698,4.561-12.121c1.774-0.453,6.453-1.652,11.172-2.862
		c-0.037,0.986-0.046,0.993-0.044,1.974c-0.001,0.051-0.003,0.098-0.003,0.148c-4.808,1.474-12.476,0.199-15.686,12.865
		C54.38,294.879,54.38,294.877,54.38,294.877z M52.534,313.361c0.007,0.069,0.015,0.139,0.022,0.209
		C52.52,313.538,52.492,313.479,52.534,313.361z M36.702,315.513c0.996-7.356,3.402-13.304,5.133-13.746l3.195-0.82
		c1.907-0.49,4.318-1.108,6.768-1.739c-0.008,0.664-0.006,1.343,0.001,2.03l0,0c0.002,0.213,0.005,0.428,0.009,0.643
		c0,0,0,0,0,0.001c0.003,0.176,0.004,0.35,0.008,0.527c-0.108,0.01-0.061-0.25-0.008-0.527c-0.004-0.216-0.007-0.431-0.009-0.644
		c0,0,0-0.001,0-0.001c-9.553,1.341-12.034,3.032-15.096,14.278C36.702,315.514,36.702,315.513,36.702,315.513z M36.571,354.462
		c-1.6,0.518-10.057,3.808-10.192,3.313c-4.323-15.874-3.809-28.101,1.79-29.425c1.035-0.244,3.432-0.931,6.098-1.658
		c0.105-0.029,0.213-0.059,0.32-0.088c0.093,1.196,0.062,0.986,0.196,2.228c-3.458,0.818-2.938,0.051-4.771,0.843
		c-5.482,0.793-5.757,5.822-6.089,12.608c0.086,2.893,0.44,6.133,1.101,9.616c-0.355-1.885-0.62-3.696-0.802-5.424
		c0.12-0.037,0.24-0.071,0.364-0.134c3.851-1.905,7.772-3.662,11.627-5.559c0.316,4.279,1.125,8.932,2.408,13.648
		c0.938,3.441,2.05,6.665,3.282,9.599c1.4,3.87,3.093,7.874,5.125,11.748C43.614,371.03,38.543,359.453,36.571,354.462z
		 M52.972,330.943c-2.596,1.582-7.456,2.608-14.472,5.557c0-0.001-0.578-2.463-0.578-2.464c-0.379-3.638-1.3-11.646-1.301-14.84
		c0.143-0.017,0.29-0.048,0.445-0.102c4.991-1.72,9.963-3.579,15.332-5.389c0.085-0.029,0.133-0.046,0.167-0.059
		c0.015,0.139,0.029,0.279,0.044,0.419c0.479,4.938,1.094,8.921,2.074,14.461c0.399,4.825,1.564,10.534,3.073,16.362
		c0.189,0.786,0.367,1.574,0.567,2.357c1.477,5.757,3.181,11.194,5.027,16.174c1.843,5.721,3.859,11.281,5.973,16.43
		c0,0.002,0.001,0.004,0.001,0.004C61.298,365.192,55.931,342.742,52.972,330.943z M70.113,316.55
		c-2.656,1.09-11.342,5.335-13.975,6.478c-1.444-9.469-2.05-17.703-1.928-24.211c0.437,0.136,11.381-3.038,16.397-4.406
		c1.173,13.621,4.195,30.357,8.649,47.726c4.121,16.066,9.571,32.613,15.206,45.5C90.303,380.966,72.406,332.238,70.113,316.55z
		 M80.244,336.446c1.042,4.09,2.134,8.302,3.257,12.553c-0.674-2.426-1.337-4.907-1.987-7.441
		C81.075,339.846,80.655,338.143,80.244,336.446z M109.782,371.619c-6.099-13.702-19.338-46.024-22.751-70.446
		c-6.228,2.342-7.808,3.485-12.563,6.011c-0.211-1.431-0.405-2.838-0.586-4.226c-0.026-0.208-0.055-0.417-0.081-0.625
		c-0.075-0.589-0.148-1.174-0.217-1.754c-0.039-0.328-0.076-0.652-0.113-0.978c-0.081-0.703-0.158-1.4-0.229-2.091
		c-0.06-0.573-0.118-1.146-0.172-1.709c-0.031-0.33-0.059-0.654-0.089-0.98c-0.05-0.563-0.098-1.12-0.143-1.672
		c-0.021-0.273-0.044-0.546-0.064-0.816c-0.061-0.811-0.117-1.616-0.164-2.404c-0.116-1.961-0.181-3.766-0.204-5.434
		c0.124-0.018,0.251-0.044,0.385-0.09c5.511-1.863,10.964-3.979,16.727-4.846c-0.011,1.344,0.004,2.736,0.046,4.178
		c-0.255,4.077-0.245,10.874,2.653,24.824c1.592,9.295,3.868,19.075,6.782,28.513c4.692,15.197,9.292,29.44,13.822,41.024
		c3.998,10.227,7.942,18.382,11.845,23.282C119.855,395.413,114.627,384.526,109.782,371.619z M126.493,336.304
		c-4.146,0.909-8.283,1.865-12.41,2.881c-0.268-0.298-0.52-0.653-0.755-1.048c3.354-0.945,6.665-1.913,9.991-2.782
		c2.073-0.547,4.16-1.045,6.252-1.527c-0.013,0.629,0.005,1.232,0.063,1.792c-0.41,0.086-0.819,0.179-1.23,0.268
		c0.001,0.004,0.002,0.009,0.003,0.013c-0.638,0.14-1.272,0.286-1.909,0.429C126.497,336.319,126.495,336.311,126.493,336.304z
		 M135.831,381.543c0.199,3.366,0.253,6.291,0.192,8.819c-0.638-8.21-2.314-16.568-3.688-24.471
		c-1.058-5.397-1.943-10.529-2.75-15.47c-0.959-4.203-1.811-8.118-2.602-11.821c0.653-0.145,1.308-0.285,1.962-0.427
		C132.694,354.264,135.114,369.427,135.831,381.543z M159.096,314.371c-0.675-1.372-1.405-1.895-2.09-2.711
		c1.538,5.884,1.955,16.901,1.991,17.907c-0.16,0.973-0.123,1.998-0.533,2.878c-0.531,0.39-1.125,0.831-1.801,1.34
		c-0.229,0.172-0.4,0.313-0.551,0.439c-0.298,0.093-0.619,0.178-0.989,0.248c-1.942,0.366-4.455-2.391-7.521,1.196
		c-3.974,1.179-5.699-2.717-7.556-0.981c-1.061,1.386-2.45,1.813-3.252,1.021c-0.037-0.113-0.081-0.226-0.109-0.338
		c-0.032,0.031-0.066,0.056-0.1,0.085c-0.253-0.378-0.415-0.925-0.438-1.656c-0.033,0.066-0.094-5.988-0.124-5.921
		c-1.166,2.585-2.36,6.176-1.065,8.301c-0.574-0.085-1.077-0.167-1.358-0.235c-0.238-0.113-0.458-0.263-0.655-0.445
		c-0.378-1.114-0.329-2.379-0.229-3.683c0.954-3.289,0.732-7.267,0.541-10.974c0.15-1.291,0.337-2.565,0.559-3.737
		c0.74-2.016,1.172-3.708,1.405-5.204c1.01-4.118,1.103-6.552,1.036-9.065v-0.001c0.016-0.393,0.016-0.794,0.007-1.195v-0.001
		c-0.001-0.047-0.001-0.093-0.002-0.142c0,0,0-0.001,0-0.002c-0.098-3.489-1.06-7.213-2.271-10.719
		c-0.003-0.01-0.006-0.019-0.01-0.029c-0.193-0.559-0.393-1.11-0.596-1.657c-0.021-0.057-0.043-0.113-0.065-0.171
		c-0.193-0.516-0.389-1.024-0.586-1.524c-0.006-0.015-0.012-0.03-0.018-0.046l-0.017-0.043c-0.011-0.026-0.021-0.052-0.032-0.078
		c-0.186-0.468-0.371-0.928-0.555-1.378c-0.03-0.073-0.06-0.146-0.09-0.219c-0.169-0.412-0.337-0.817-0.503-1.214
		c-0.018-0.044-0.037-0.089-0.055-0.133c-0.003-0.007-0.007-0.016-0.01-0.024c-0.037-0.086-0.072-0.17-0.107-0.255
		c-0.127-0.304-0.253-0.603-0.376-0.896c-0.1-0.237-0.2-0.475-0.295-0.702c-2.869-6.832-5.98-19.184-3.202-26.644
		c2.244,4.738,4.346,11.311,8.488,14.714c0-0.001-0.001-0.001-0.001-0.001c0.001,0,0.001,0,0.001,0.001
		c-4.722-10.696-10.012-19.04-11.312-30.821c-0.576-5.229-0.967-10.879,0.763-15.947c0.533-1.561,1.078-3.208,1.554-4.905
		c0.004-0.014,0.007-0.028,0.011-0.042c0.657-2.348,1.175-4.79,1.342-7.233c0.712-4.897,1.463-9.944,4.506-13.15
		c1.092,3.336,1.294,6.758,2.283,10.097c0.141,0.477,0.298,0.952,0.476,1.425v-0.002c0.001,0.001,0.001,0.001,0.001,0.002
		c-0.174-10.502,0.855-20.811,0.888-31.138c0,0.03-0.002,0.062-0.003,0.092c0,0.003-0.001,0.005-0.001,0.008
		c0.001-0.033,0.002-0.067,0.002-0.101c-0.025,5.728-2.052,11.876-2.813,17.552c-2.18,0.733-3.365,2.874-4.056,5.239
		c-0.025,0.085-0.053,0.168-0.077,0.253c-0.053,0.194-0.1,0.391-0.147,0.586c-0.019,0.081-0.042,0.16-0.06,0.24
		c-0.038,0.164-0.069,0.328-0.103,0.493c-0.023,0.113-0.049,0.226-0.071,0.339c-0.01,0.051-0.018,0.101-0.027,0.152
		c-0.246,1.327-0.384,2.62-0.493,3.674c-2.196-6.776,0.231-16.9,1.823-23.3c1.012-4.069,1.745-8.458,3.633-12.213
		c0.194-0.386,0.402-0.761,0.62-1.129c0.03-0.051,0.063-0.099,0.093-0.15c0.025-0.04,0.049-0.079,0.074-0.119
		c0.167-0.273,0.336-0.545,0.513-0.812c0.001-0.001,0.002-0.003,0.003-0.004c0.072-0.108,0.147-0.214,0.22-0.321
		c0.003-0.004,0.006-0.008,0.009-0.013c0.168-0.245,0.337-0.49,0.511-0.73c0.074-0.102,0.148-0.204,0.223-0.305
		c0.101-0.137,0.203-0.273,0.304-0.409c-0.089,0.281-0.17,0.566-0.247,0.852c-0.028,0.109-0.057,0.217-0.083,0.326
		c-0.044,0.179-0.084,0.357-0.122,0.536c-0.063,0.298-0.118,0.595-0.163,0.891c-0.009,0.062-0.021,0.124-0.029,0.186
		c-0.029,0.211-0.052,0.422-0.069,0.632c-0.003,0.031-0.005,0.062-0.008,0.093c-0.052,0.667-0.047,1.317,0.03,1.93v0.001
		c-0.081,1.355,0.028,2.593,0.518,3.422c-0.066-1.929,1.825-5.234,2.429-7.307c0.004,0.017,0.009,0.034,0.013,0.051
		c0.005,0.022,0.011,0.043,0.016,0.064c0.091,0.385,0.195,0.758,0.302,1.128c0.151,0.523,0.314,1.038,0.497,1.538
		c0.01,0.029,0.02,0.06,0.031,0.089c0.203,0.549,0.424,1.084,0.658,1.611c0.024,0.055,0.048,0.11,0.072,0.165
		c0.23,0.511,0.474,1.011,0.727,1.506c0.034,0.066,0.068,0.133,0.102,0.199c0.252,0.486,0.514,0.967,0.783,1.444
		c0.04,0.07,0.08,0.14,0.119,0.21c0.272,0.477,0.55,0.951,0.833,1.424c0.042,0.07,0.085,0.142,0.127,0.212
		c0.3,0.501,0.604,1.001,0.909,1.503c0.302,0.496,0.604,0.995,0.904,1.497c0.025,0.043,0.05,0.085,0.075,0.127
		c0.308,0.518,0.615,1.041,0.915,1.573c2.541,4.505,1.181,9.617,0.95,14.46c0-0.001,0-0.001,0.001-0.002c0,0.001,0,0.001,0,0.001
		c2.749-4.546,1.445-9.248,6.339-12.694c2.761-1.944,8.355-3.677,12.22-3.61c0.222,0.652,0.426,1.306,0.619,1.961v0.001
		c0.04,0.134,0.078,0.268,0.116,0.402c0.057,0.2,0.105,0.4,0.159,0.601c0.116,0.424,0.235,0.847,0.338,1.272
		c0.001,0.003,0.001,0.007,0.002,0.011c0.005,0.021,0.01,0.041,0.016,0.061c0.007,0.031,0.013,0.061,0.02,0.092
		c0.163,0.685,0.313,1.372,0.444,2.062c0.137,0.72,0.256,1.442,0.358,2.167c-0.058-0.063-0.12-0.121-0.178-0.185l0.212,0.423
		c0.18,1.341,0.298,2.691,0.351,4.049c0.001,0.021,0.002,0.043,0.002,0.064c0.008,0.215,0.004,0.434,0.009,0.65
		c0.008,0.407,0.02,0.814,0.017,1.224c-0.001,0.087-0.001,0.172-0.002,0.258c-0.008,0.63-0.03,1.262-0.067,1.896
		c-0.001,0.023-0.002,0.047-0.003,0.072c-0.024,0.4-0.066,0.804-0.102,1.206c-0.025,0.273-0.04,0.546-0.07,0.82
		c-0.007,0.069-0.018,0.139-0.026,0.209c0,0.002,0,0.005-0.001,0.006c-0.023,0.209-0.057,0.42-0.085,0.629
		c-0.046,0.356-0.089,0.711-0.144,1.067c-0.028,0.181-0.059,0.361-0.089,0.542v0.001c-0.01,0.06-0.023,0.119-0.033,0.178
		c-0.073,0.425-0.15,0.851-0.237,1.279c-0.036,0.177-0.069,0.354-0.107,0.532c0,0.002-0.001,0.005-0.001,0.007
		c-0.14,0.649-0.29,1.301-0.461,1.956c-0.048,0.183-0.102,0.377-0.159,0.581c-0.019,0.068-0.041,0.142-0.062,0.212
		c-0.04,0.14-0.081,0.281-0.126,0.429c-0.026,0.086-0.055,0.177-0.082,0.266c-0.043,0.14-0.087,0.28-0.133,0.427
		c-0.031,0.099-0.065,0.2-0.098,0.301c-0.046,0.144-0.095,0.289-0.145,0.438c-0.037,0.108-0.074,0.218-0.112,0.329
		c-0.051,0.149-0.104,0.298-0.158,0.451c-0.041,0.115-0.082,0.232-0.124,0.349c-0.057,0.157-0.115,0.317-0.175,0.478
		c-0.043,0.116-0.086,0.233-0.131,0.351c-0.064,0.168-0.129,0.338-0.196,0.51c-0.045,0.116-0.09,0.232-0.137,0.35
		c-0.072,0.182-0.146,0.366-0.222,0.552c-0.045,0.11-0.089,0.219-0.135,0.33c-0.086,0.209-0.177,0.421-0.267,0.634
		c-0.039,0.089-0.075,0.177-0.114,0.267c-0.131,0.301-0.265,0.604-0.403,0.907c-0.027,0.058-0.055,0.118-0.082,0.176
		c-0.113,0.246-0.227,0.492-0.344,0.737c-0.051,0.107-0.105,0.215-0.157,0.322c-0.096,0.198-0.193,0.395-0.292,0.593
		c-0.061,0.121-0.124,0.243-0.187,0.364c-0.093,0.182-0.188,0.363-0.283,0.544c-0.068,0.128-0.138,0.256-0.207,0.383
		c-0.094,0.173-0.188,0.345-0.285,0.517c-0.072,0.13-0.146,0.258-0.22,0.387c-0.097,0.168-0.195,0.335-0.294,0.501
		c-0.076,0.128-0.152,0.255-0.23,0.38c-0.101,0.165-0.204,0.329-0.307,0.49c-0.078,0.123-0.156,0.246-0.235,0.367
		c-0.107,0.163-0.216,0.322-0.325,0.482c-0.078,0.113-0.156,0.229-0.235,0.342c-0.118,0.168-0.238,0.33-0.358,0.492
		c-0.073,0.1-0.145,0.201-0.219,0.299c-0.151,0.198-0.305,0.39-0.46,0.58c-0.045,0.056-0.089,0.114-0.134,0.168
		c-0.2,0.241-0.402,0.473-0.608,0.698c-0.065,0.071-0.132,0.137-0.197,0.206c-0.143,0.151-0.286,0.302-0.431,0.444
		c-0.083,0.083-0.169,0.159-0.253,0.237c-0.129,0.121-0.258,0.244-0.39,0.357c-0.093,0.08-0.186,0.154-0.279,0.23
		c-0.126,0.104-0.253,0.206-0.38,0.303c-0.098,0.073-0.196,0.143-0.295,0.211c-0.126,0.089-0.253,0.174-0.38,0.256
		c-0.101,0.063-0.202,0.124-0.304,0.184c-0.128,0.074-0.257,0.145-0.387,0.21c-0.104,0.054-0.206,0.104-0.31,0.151
		c-0.132,0.061-0.265,0.113-0.398,0.166c-0.103,0.039-0.207,0.081-0.31,0.115c-0.139,0.047-0.279,0.082-0.419,0.119
		c-0.1,0.025-0.2,0.054-0.301,0.076c-0.153,0.03-0.309,0.049-0.464,0.066c-0.089,0.012-0.177,0.029-0.268,0.035
		c-0.225,0.018-0.452,0.018-0.681,0.007c-0.02-0.001-0.039,0.001-0.058,0c-0.008-0.001-0.017-0.002-0.024-0.003
		c-0.225-0.015-0.452-0.047-0.68-0.09c-0.073-0.014-0.147-0.033-0.22-0.051c-0.174-0.039-0.349-0.088-0.524-0.146
		c-0.073-0.024-0.146-0.048-0.221-0.073c-0.235-0.087-0.472-0.186-0.711-0.306c-0.005-0.003-0.011-0.005-0.017-0.008
		c-0.234-0.259-0.485-0.507-0.738-0.749c-0.544-0.898-1.614-2.345-2.128-3.244c-0.44-1.016-0.84-2.021-1.234-2.982
		c-0.095-0.232-0.19-0.46-0.285-0.686c-0.056-0.131-0.112-0.263-0.167-0.392c-0.159-0.367-0.317-0.725-0.48-1.065
		c0.037,0.224,0.076,0.442,0.114,0.663c0,0,0,0,0-0.001c-0.033-0.067-0.062-0.139-0.095-0.206c-0.011,1.74,0.438,3.313,1.095,4.819
		c-0.014,0.035-0.02,0.07-0.033,0.106c0,0.002-0.001,0.003-0.001,0.003c-0.028,0.081-0.055,0.162-0.073,0.243
		c0,0.001,0,0.001,0,0.001c-0.006,0.029-0.009,0.057-0.012,0.086c-0.004,0.027-0.009,0.057-0.013,0.086
		c-0.008,0.059-0.023,0.115-0.026,0.175c-0.399-0.342-0.806-0.672-1.22-0.987c-0.03-0.023-0.06-0.047-0.09-0.069
		c-0.426-0.321-0.861-0.625-1.311-0.901c-0.002-0.002-0.003-0.002-0.004-0.003c-1.603-1.311-3.377-2.756-3.949-2.865
		c1.55,1.312,6.133,6.237,7.648,7.747c0.104,0.201,0.198,0.398,0.299,0.6c0.22,0.439,0.443,0.877,0.65,1.311
		c0.098,0.204,0.188,0.406,0.282,0.607c0.016,0.035,0.031,0.068,0.047,0.102c0.186,0.396,0.374,0.793,0.549,1.186
		c0.105,0.237,0.199,0.471,0.3,0.705c0.008,0.018,0.015,0.035,0.022,0.053c0.161,0.373,0.326,0.749,0.478,1.121c0,0,0,0,0,0.002
		c0.109,0.268,0.206,0.533,0.309,0.8c0.007,0.021,0.015,0.038,0.023,0.059c0.13,0.333,0.264,0.665,0.384,0.996
		c0.001,0.002,0.001,0.004,0.001,0.004c0.101,0.275,0.188,0.55,0.283,0.823c0.016,0.047,0.031,0.094,0.047,0.141
		c0.103,0.297,0.209,0.592,0.303,0.887c0.046,0.145,0.087,0.291,0.129,0.436c0.041,0.139,0.082,0.277,0.124,0.415
		c0.017,0.058,0.033,0.114,0.05,0.171c0.083,0.273,0.169,0.547,0.243,0.822c0,0,0.001,0,0.001,0.002
		c0.055,0.201,0.103,0.404,0.151,0.605c0.024,0.102,0.05,0.201,0.075,0.301c0.079,0.314,0.164,0.629,0.234,0.943
		c0.07,0.311,0.126,0.625,0.188,0.938c0.061,0.308,0.13,0.614,0.184,0.923c0,0,0.001,0.001,0.001,0.002
		c0.03,0.175,0.054,0.349,0.078,0.523c0.021,0.148,0.045,0.296,0.066,0.442c0.046,0.305,0.098,0.605,0.137,0.912
		c0,0.001,0.001,0.003,0.001,0.004c0.02,0.162,0.033,0.325,0.048,0.489c0.018,0.188,0.038,0.374,0.056,0.561
		c0.027,0.283,0.063,0.564,0.084,0.85c0,0.002,0.001,0.003,0.001,0.004c0.026,0.349,0.038,0.702,0.052,1.055
		c0.002,0.05,0.005,0.1,0.007,0.149c0.01,0.245,0.03,0.486,0.036,0.732l0,0c0.004,0.144-0.001,0.29,0,0.436
		c0.003,0.346,0.005,0.692,0.001,1.043c-0.001,0.166,0.004,0.33,0,0.497c-0.015,0.619-0.047,1.246-0.089,1.879
		c-0.003,0.049-0.003,0.094-0.007,0.143c-0.001,0.007-0.001,0.014-0.002,0.021c-0.043,0.606-0.104,1.224-0.173,1.847
		c-0.021,0.188-0.045,0.378-0.069,0.567c-0.058,0.471-0.124,0.945-0.197,1.426c-0.029,0.19-0.057,0.382-0.088,0.574
		c-0.107,0.653-0.223,1.313-0.357,1.987c-1.258,6.283-3.475,12.242-3.757,18.679c-0.251,5.734,0.452,11.736-0.352,17.279
		c0-0.001,0.001-0.001,0.001-0.001s0,0,0,0.001c3.022-4.189,1.859-9.55,2.653-14.544c0.77-4.832,2.128-9.77,3.276-14.441
		c0.032,0.123,0.053,0.25,0.083,0.375c0.054,0.233,0.112,0.465,0.154,0.702c0.02,0.116,0.031,0.235,0.049,0.352
		c0.038,0.248,0.078,0.496,0.105,0.748c0.015,0.147,0.019,0.297,0.031,0.445c0.017,0.224,0.038,0.448,0.046,0.675
		c0.01,0.26,0.008,0.522,0.008,0.784c0,0.117,0.005,0.233,0.004,0.351c-0.076,4.569-1.544,9.44-1.957,13.645
		c-0.621,6.312-0.38,17.324,1.529,23.729c0-0.001,0-0.002,0-0.002s0.001,0.001,0.001,0.002c-0.018-0.193-0.026-0.399-0.041-0.596
		c-0.029-0.382-0.06-0.761-0.078-1.156c-0.023-0.507-0.034-1.028-0.04-1.556c-0.001-0.085-0.005-0.168-0.006-0.255
		c-0.009-1.23,0.024-2.509,0.092-3.821c0.087,0.161,0.21,0.354,0.349,0.559c0.801,1.185,2.372,2.994,3.798,4.604
		c1.038,0.832,2.075,1.679,2.872,2.733c1.739,2.3,3.297,5.607,4.313,8.323c-0.407,0.085-0.67,0.148-0.891,0.202
		c-0.696,0.169-0.953,0.227-3.876,0.469C159.389,315.519,159.247,314.92,159.096,314.371z M289.762,316.26
		c-0.35,1.729-0.652,4.057-0.893,7.212c-0.047,0.185-0.096,0.368-0.142,0.553c-20.522-1.412-34.398-1.919-44.713-1.948
		c-1.969,0.008-3.906,0.02-5.793,0.036c-4.564,0.073-8.375,0.245-11.828,0.465c0.002,0,0.004,0,0.004,0c-0.006,0-0.01,0-0.014,0
		c-0.029,0.002-0.059,0.005-0.086,0.007l7.572,0.525c10.645,0.206,26.238,1.038,54.029,3.022c-0.281,0.581-0.572,1.21-0.73,1.794
		c-1.781-0.254-3.563-0.5-5.346-0.733c-12.941-1.255-26.102-2.005-39.297-2.243c-4.541-0.107-9.084-0.145-13.625-0.121
		c-1.281-0.033-2.016-0.03-2.113,0.01c0,0-0.014,0-0.016,0l0.031,0.001c0.021,0.001,0.047,0.003,0.07,0.003
		c-11.356,0.108-22.709,0.619-34.038,1.53l1.167-0.017c-7.595,0.583-15.138,1.335-22.622,2.256c0.006-0.012,0.013-0.024,0.02-0.037
		c-0.459,0.058-0.919,0.119-1.378,0.178c0.004,0.012,0.008,0.022,0.012,0.034c-2.457,0.308-4.907,0.639-7.352,0.984
		c-0.004-0.008-0.007-0.016-0.01-0.024c-0.038-0.081-0.076-0.162-0.111-0.247c0.01-0.021,0.02-0.042,0.03-0.065
		c-0.022-0.017-0.057-0.037-0.082-0.057c-0.187-0.461-0.352-0.961-0.502-1.482c13.457-1.968,40.892-4.237,59.172-5.102
		c1.322-0.104,2.579-0.205,3.767-0.304c-3.342-0.196-6.696-0.319-10.035-0.377c-17.737,0.403-41.884,2.534-53.425,3.693
		c-0.001-0.005-0.002-0.011-0.004-0.017c-0.18-0.822-0.344-1.646-0.51-2.423c-0.21-2.223-0.459-3.956-0.736-5.322
		c21.438-2.946,43.274-4.434,65.327-4.434c7.085,0,14.206,0.163,21.335,0.472c11.012,0.031,25.816,0.369,38.172,1.554
		c1.266,0.161,2.531,0.326,3.795,0.498c0.299,0.041,0.6,0.076,0.9,0.117C289.762,316.254,289.762,316.257,289.762,316.26z
		 M317.055,333.693c-0.195,0.184-0.416,0.332-0.654,0.445c-0.279,0.069-0.783,0.151-1.357,0.236c1.295-2.126,0.1-5.716-1.066-8.301
		c-0.029-0.067-0.09,5.986-0.123,5.92c-0.023,0.732-0.184,1.279-0.438,1.656c-0.033-0.028-0.068-0.053-0.1-0.085
		c-0.027,0.112-0.072,0.227-0.109,0.338c-0.803,0.793-2.191,0.365-3.254-1.02c-1.855-1.735-3.58,2.161-7.555,0.981
		c-3.064-3.587-5.578-0.83-7.52-1.195c-0.371-0.07-0.691-0.156-0.99-0.249c-0.15-0.126-0.322-0.267-0.551-0.439
		c-0.676-0.509-1.27-0.95-1.801-1.34c-0.41-0.88-0.373-1.904-0.533-2.877c0.035-1.006,0.453-12.025,1.99-17.908
		c-0.685,0.816-1.414,1.338-2.088,2.71c-0.152,0.55-0.295,1.149-0.422,1.817c-2.924-0.242-3.182-0.301-3.877-0.47
		c-0.221-0.053-0.484-0.117-0.891-0.202c1.016-2.715,2.574-6.022,4.314-8.323c0.795-1.053,1.834-1.901,2.869-2.732
		c1.426-1.609,2.998-3.419,3.799-4.604c0.139-0.205,0.262-0.397,0.348-0.56c0.137,2.636,0.135,5.131-0.072,7.385
		c1.908-6.405,2.148-17.418,1.529-23.73c-0.074-0.747-0.182-1.517-0.309-2.301c-0.002,0.003-0.002,0.005-0.006,0.008
		c0,0.001,0,0.001-0.002,0.002c-0.01-0.063-0.022-0.126-0.031-0.188c-0.035-0.188-0.07-0.375-0.105-0.565
		c-0.043-0.228-0.086-0.456-0.129-0.686c-0.057-0.301-0.113-0.604-0.17-0.907c-0.02-0.108-0.041-0.217-0.061-0.325
		c-0.066-0.358-0.131-0.718-0.193-1.078c-0.002-0.001-0.002-0.003-0.002-0.003c-0.059-0.344-0.115-0.686-0.172-1.028
		c-0.016-0.107-0.031-0.215-0.049-0.321c-0.037-0.253-0.074-0.505-0.109-0.757c-0.016-0.113-0.031-0.224-0.045-0.336
		c-0.045-0.34-0.086-0.68-0.121-1.018c-0.002-0.019-0.004-0.04-0.006-0.06c-0.033-0.334-0.06-0.668-0.084-1
		c-0.006-0.106-0.012-0.212-0.018-0.319c-0.014-0.249-0.023-0.498-0.029-0.746c-0.004-0.108-0.006-0.218-0.008-0.325
		c-0.004-0.332-0.002-0.661,0.01-0.989c0.002-0.021,0.002-0.044,0.004-0.065c0.012-0.322,0.035-0.643,0.066-0.961
		c0.01-0.105,0.024-0.21,0.035-0.313c0.027-0.238,0.059-0.476,0.098-0.71c0.018-0.104,0.035-0.209,0.053-0.311
		c0.059-0.314,0.125-0.627,0.205-0.935c0.004-0.01,0.004-0.02,0.008-0.03c0.023,0.093,0.047,0.189,0.07,0.282
		c0.221,0.895,0.447,1.797,0.678,2.708c0.242,0.96,0.484,1.932,0.723,2.904c0.047,0.186,0.092,0.372,0.137,0.559
		c0.227,0.931,0.447,1.866,0.656,2.802c0.031,0.141,0.061,0.282,0.094,0.423c0.119,0.551,0.227,1.102,0.338,1.651
		c0.014-0.018,0.025-0.035,0.037-0.053v0.001c0.082,0.453,0.164,0.907,0.236,1.36c0.795,4.994-0.369,10.354,2.652,14.543
		c0-0.001,0-0.001,0-0.001l0.002,0.001c-0.805-5.542-0.102-11.544-0.352-17.279c-0.029-0.635-0.08-1.266-0.143-1.893
		c0.022-0.028,0.045-0.058,0.066-0.086c-0.008-0.064-0.014-0.128-0.023-0.192c-0.023-0.135-0.043-0.27-0.066-0.405
		c-0.092-0.571-0.195-1.144-0.307-1.711c-0.023-0.126-0.051-0.25-0.076-0.374c-0.115-0.564-0.236-1.128-0.365-1.689
		c-0.018-0.074-0.035-0.15-0.053-0.225c-0.129-0.557-0.264-1.113-0.4-1.669c-0.035-0.139-0.068-0.277-0.103-0.415
		c-0.137-0.545-0.275-1.09-0.414-1.635c-0.18-0.704-0.361-1.409-0.539-2.115c-0.014-0.059-0.027-0.118-0.041-0.176
		c-0.164-0.648-0.322-1.295-0.475-1.946c-0.182-0.777-0.353-1.557-0.512-2.343c-0.148-0.747-0.281-1.481-0.397-2.204
		c-0.035-0.216-0.057-0.423-0.088-0.636c-0.074-0.505-0.15-1.009-0.207-1.502c-0.031-0.271-0.049-0.535-0.076-0.805
		c-0.041-0.425-0.09-0.854-0.119-1.271c-0.02-0.271-0.025-0.535-0.037-0.802c-0.012-0.204-0.021-0.408-0.031-0.61
		c-0.01-0.202-0.023-0.405-0.029-0.604c0-0.002,0-0.005,0-0.008c-0.006-0.314,0.002-0.624,0-0.936c0-0.122,0.002-0.244,0-0.368
		c0-0.225-0.004-0.449,0.002-0.67c0.008-0.327,0.033-0.648,0.049-0.972c0.016-0.322,0.023-0.646,0.047-0.967
		c0.025-0.34,0.066-0.677,0.102-1.015c0.029-0.294,0.051-0.592,0.086-0.883c0.002-0.003,0.002-0.005,0.002-0.005
		c0.023-0.195,0.057-0.389,0.086-0.581c0.025-0.156,0.047-0.313,0.07-0.469c0.041-0.277,0.076-0.556,0.123-0.83v-0.001
		c0.008-0.038,0.018-0.073,0.023-0.111c0.057-0.311,0.123-0.622,0.188-0.934c0.053-0.271,0.102-0.544,0.162-0.815
		c0.023-0.107,0.053-0.216,0.08-0.323c0.063-0.254,0.125-0.51,0.189-0.764c0.02-0.077,0.039-0.155,0.059-0.232
		c0.043-0.178,0.084-0.355,0.133-0.532c0.104-0.386,0.225-0.77,0.342-1.155c0.068-0.229,0.131-0.455,0.203-0.684
		c0.135-0.425,0.287-0.85,0.436-1.277c0.066-0.191,0.129-0.385,0.199-0.578c0.156-0.428,0.326-0.857,0.496-1.287
		c0.074-0.189,0.143-0.377,0.219-0.566c0-0.002,0-0.002,0.002-0.004c0.127-0.318,0.268-0.639,0.406-0.958
		c0.059-0.138,0.117-0.274,0.176-0.412c0.074-0.169,0.141-0.335,0.215-0.505c0.02-0.041,0.041-0.084,0.059-0.127
		c0.205-0.453,0.418-0.912,0.635-1.37c0.063-0.13,0.119-0.259,0.182-0.392c0.025-0.053,0.055-0.109,0.08-0.162
		c0.252-0.52,0.51-1.041,0.777-1.566c0.033-0.066,0.064-0.133,0.1-0.199c0.855-0.852,2.193-2.451,3.475-3.918
		c0.986-1.129,1.94-2.179,2.613-2.749c-0.549,0.103-1.701,1.092-2.816,2.058c-0.764,0.508-1.488,1.084-2.197,1.688
		c-0.002-0.058-0.018-0.114-0.025-0.171l0,0c-0.008-0.059-0.014-0.117-0.025-0.176c0,0,0,0,0-0.001
		c-0.012-0.052-0.031-0.103-0.047-0.153c-0.01-0.027-0.016-0.057-0.025-0.083c-0.014-0.038-0.02-0.078-0.035-0.116
		c0.656-1.506,1.105-3.079,1.096-4.819c-0.033,0.067-0.064,0.139-0.096,0.206v-0.001c0.037-0.221,0.076-0.438,0.113-0.662
		c-0.725,1.515-1.383,3.317-2.166,5.128l-0.002,0.001c-0.436,0.761-1.266,1.911-1.84,2.792c-0.016,0.023-0.033,0.051-0.049,0.074
		c-0.086,0.132-0.166,0.259-0.238,0.375c-0.252,0.242-0.504,0.49-0.736,0.749c-0.246,0.124-0.488,0.225-0.732,0.314
		c-0.07,0.027-0.143,0.049-0.213,0.071c-0.178,0.06-0.355,0.108-0.531,0.15c-0.072,0.016-0.145,0.035-0.215,0.049
		c-0.23,0.043-0.459,0.075-0.685,0.091c-0.008,0-0.014,0.001-0.022,0.002c-0.006,0-0.01,0-0.016,0
		c-0.227,0.014-0.449,0.009-0.672-0.007c-0.059-0.003-0.117-0.006-0.174-0.013c-0.225-0.022-0.447-0.051-0.668-0.099
		c-0.02-0.004-0.039-0.011-0.059-0.014c-0.205-0.047-0.41-0.107-0.615-0.176c-0.055-0.018-0.109-0.035-0.164-0.056
		c-0.217-0.079-0.432-0.165-0.643-0.267c-0.027-0.014-0.055-0.029-0.082-0.043c-0.191-0.094-0.383-0.199-0.572-0.311
		c-0.051-0.03-0.102-0.061-0.152-0.091c-0.207-0.13-0.414-0.267-0.617-0.414c-0.033-0.024-0.064-0.051-0.098-0.075
		c-0.182-0.135-0.359-0.275-0.535-0.424c-0.047-0.039-0.094-0.077-0.141-0.117c-0.197-0.171-0.395-0.35-0.588-0.537
		c-0.037-0.035-0.072-0.072-0.107-0.107c-0.168-0.167-0.336-0.34-0.502-0.518c-0.041-0.045-0.084-0.089-0.125-0.135
		c-0.189-0.208-0.375-0.422-0.559-0.642c-0.039-0.044-0.074-0.091-0.111-0.136c-0.16-0.195-0.318-0.396-0.475-0.6
		c-0.035-0.047-0.07-0.093-0.107-0.141c-0.178-0.236-0.354-0.477-0.525-0.723c-0.039-0.055-0.076-0.109-0.113-0.165
		c-0.15-0.216-0.299-0.437-0.445-0.659c-0.029-0.047-0.061-0.094-0.092-0.141c-0.166-0.258-0.33-0.52-0.49-0.785
		c-0.037-0.059-0.072-0.12-0.109-0.18c-0.143-0.238-0.283-0.477-0.422-0.72c-0.023-0.041-0.047-0.081-0.07-0.122
		c-0.154-0.272-0.307-0.548-0.453-0.825c-0.035-0.065-0.07-0.131-0.107-0.197c-0.135-0.255-0.268-0.51-0.396-0.767
		c-0.016-0.03-0.031-0.059-0.047-0.089c-0.143-0.282-0.281-0.565-0.418-0.849c-0.031-0.065-0.063-0.131-0.094-0.198
		c-0.129-0.271-0.256-0.542-0.381-0.813c-0.006-0.013-0.012-0.028-0.018-0.042c-0.131-0.288-0.258-0.572-0.381-0.857
		c-0.025-0.059-0.053-0.119-0.078-0.178c-0.121-0.283-0.24-0.565-0.357-0.843c-0.045-0.109-0.084-0.214-0.129-0.323
		c-0.035-0.09-0.072-0.179-0.109-0.269c-0.125-0.317-0.246-0.629-0.363-0.937c-0.033-0.085-0.066-0.169-0.096-0.253
		c-0.117-0.308-0.227-0.608-0.332-0.904c-0.025-0.076-0.055-0.153-0.082-0.229c-0.125-0.358-0.246-0.709-0.355-1.043
		c-0.291-0.881-0.525-1.675-0.697-2.33c-0.17-0.65-0.318-1.296-0.459-1.94c-0.022-0.107-0.041-0.214-0.065-0.321
		c-0.016-0.082-0.033-0.165-0.049-0.247c-0.098-0.476-0.186-0.95-0.266-1.424c-0.01-0.07-0.022-0.139-0.033-0.209
		c-0.02-0.12-0.041-0.24-0.059-0.359c0-0.001,0-0.002,0-0.002c-0.086-0.559-0.162-1.117-0.227-1.673c0-0.001,0-0.004,0-0.005
		c-0.008-0.069-0.02-0.141-0.027-0.211c0-0.005,0-0.01-0.002-0.015c-0.072-0.676-0.131-1.349-0.17-2.02
		c-0.002-0.026-0.004-0.054-0.004-0.081c-0.037-0.632-0.059-1.262-0.068-1.889c0-0.087,0-0.174-0.002-0.262
		c-0.004-0.622,0.004-1.245,0.025-1.864c0-0.001,0-0.003,0-0.003c0-0.006,0-0.011,0.002-0.017c0-0.018,0-0.036,0.002-0.053
		c0.053-1.358,0.17-2.708,0.35-4.049l0.213-0.423c-0.059,0.064-0.119,0.122-0.178,0.185c0.203-1.446,0.477-2.882,0.82-4.31
		c0.008-0.036,0.018-0.07,0.025-0.107c0.002-0.005,0.004-0.01,0.004-0.015c0.146-0.606,0.311-1.209,0.482-1.813
		c0-0.002,0-0.003,0.002-0.005c0.01-0.041,0.023-0.082,0.035-0.123c0.029-0.102,0.059-0.206,0.088-0.308
		c0.191-0.651,0.395-1.301,0.615-1.949c0.234-0.004,0.475-0.001,0.723,0.008c0.082,0.003,0.168,0.01,0.252,0.015
		c0.164,0.008,0.33,0.017,0.5,0.031c0.103,0.008,0.207,0.021,0.313,0.031c0.154,0.016,0.309,0.03,0.469,0.05
		c0.111,0.014,0.225,0.031,0.338,0.046c0.152,0.022,0.305,0.042,0.461,0.067c0.117,0.02,0.236,0.04,0.355,0.062
		c0.152,0.026,0.303,0.054,0.457,0.084c0.121,0.024,0.244,0.05,0.367,0.076c0.15,0.031,0.303,0.063,0.451,0.098
		c0.125,0.029,0.25,0.059,0.375,0.089c0.15,0.037,0.299,0.074,0.447,0.113c0.125,0.032,0.25,0.066,0.375,0.101
		c0.148,0.041,0.297,0.083,0.447,0.126c0.119,0.036,0.242,0.072,0.363,0.109c0.15,0.046,0.299,0.093,0.447,0.142
		c0.119,0.038,0.236,0.077,0.352,0.116c0.148,0.05,0.295,0.102,0.439,0.154c0.115,0.041,0.23,0.082,0.344,0.124
		c0.144,0.054,0.287,0.11,0.43,0.166c0.109,0.042,0.217,0.085,0.324,0.129c0.145,0.059,0.283,0.12,0.424,0.181
		c0.1,0.044,0.201,0.086,0.299,0.129c0.145,0.065,0.283,0.133,0.424,0.199c0.086,0.042,0.176,0.083,0.262,0.124
		c0.152,0.077,0.299,0.154,0.445,0.232c0.064,0.035,0.133,0.068,0.195,0.103c0.205,0.114,0.404,0.229,0.592,0.345
		c0.193,0.12,0.377,0.24,0.551,0.361c4.895,3.447,3.59,8.148,6.34,12.695c0,0,0-0.001,0-0.002c0,0.001,0,0.001,0,0.001
		c-0.066-1.381-0.223-2.784-0.355-4.189c-0.006-0.049-0.01-0.098-0.016-0.146c-0.017-0.196-0.035-0.392-0.051-0.587
		c-0.01-0.122-0.022-0.244-0.031-0.366c-0.012-0.164-0.023-0.328-0.035-0.492c-0.01-0.142-0.02-0.283-0.027-0.424
		c-0.008-0.152-0.018-0.304-0.023-0.456c-0.006-0.151-0.012-0.302-0.018-0.453c-0.004-0.145-0.006-0.289-0.01-0.432
		c0-0.157,0-0.313,0-0.469c0-0.139,0.004-0.277,0.006-0.416c0.004-0.16,0.012-0.32,0.02-0.479c0.008-0.134,0.016-0.268,0.025-0.402
		c0.012-0.164,0.029-0.328,0.045-0.492c0.014-0.128,0.027-0.255,0.043-0.383c0.023-0.17,0.053-0.34,0.08-0.509
		c0.02-0.12,0.037-0.24,0.061-0.359c0.037-0.18,0.08-0.358,0.123-0.537c0.027-0.108,0.049-0.216,0.078-0.323
		c0.055-0.202,0.119-0.403,0.186-0.602c0.027-0.083,0.051-0.166,0.078-0.249c0.102-0.283,0.213-0.564,0.34-0.843
		c0.129-0.287,0.273-0.57,0.432-0.852c0.168-0.297,0.338-0.591,0.508-0.884c0.275-0.47,0.553-0.935,0.832-1.397
		c0.002-0.003,0.004-0.006,0.004-0.009c0.01-0.013,0.016-0.026,0.025-0.04c0.082-0.135,0.162-0.271,0.244-0.406
		c0.529-0.871,1.057-1.733,1.568-2.6c0.025-0.043,0.051-0.085,0.074-0.128c0.033-0.056,0.065-0.111,0.098-0.167
		c0.078-0.134,0.158-0.268,0.236-0.401c0-0.001,0-0.002,0-0.002c0.059-0.1,0.113-0.201,0.17-0.301
		c0.107-0.186,0.213-0.372,0.318-0.559c0.027-0.052,0.055-0.104,0.084-0.156c0.115-0.209,0.229-0.419,0.34-0.63
		c0.016-0.028,0.031-0.055,0.047-0.083c0.076-0.145,0.148-0.293,0.225-0.439c0-0.003,0.002-0.006,0.004-0.009
		c0.266-0.521,0.521-1.049,0.762-1.587c0.035-0.084,0.072-0.167,0.109-0.25c0.059-0.136,0.119-0.269,0.178-0.406
		c0.035-0.084,0.066-0.17,0.1-0.254c0.037-0.096,0.076-0.192,0.113-0.288c0.039-0.1,0.078-0.199,0.119-0.298
		c0.012-0.032,0.025-0.062,0.037-0.094c0.041-0.114,0.08-0.23,0.119-0.347c0.074-0.203,0.148-0.405,0.215-0.611
		c0.002-0.001,0.002-0.001,0.002-0.001c0.018-0.06,0.035-0.122,0.055-0.182c0.185-0.589,0.355-1.191,0.498-1.814
		c0.125,0.433,0.233,0.877,0.328,1.323c0.043,0.195,0.082,0.391,0.121,0.587c0.035,0.193,0.066,0.386,0.098,0.579
		c0.09,0.565,0.164,1.13,0.211,1.685c0,0.001,0,0.003,0,0.004v0c0.025,1.214-0.002,2.423,0.078,3.387
		c1.137-1.946,2.264-6.463,1.418-9.128c0-0.001,0-0.001,0-0.001c0.055,0.073,0.109,0.147,0.164,0.221
		c0.041,0.054,0.08,0.108,0.121,0.162c0.084,0.114,0.168,0.229,0.25,0.343c0.107,0.148,0.209,0.297,0.313,0.447
		c0.063,0.088,0.123,0.175,0.186,0.263c0.002,0.004,0.006,0.007,0.006,0.011c0.078,0.113,0.158,0.226,0.234,0.339
		c0.172,0.259,0.336,0.523,0.498,0.789c0.059,0.097,0.121,0.191,0.18,0.289c0,0,0.002,0.001,0.002,0.002
		c0.217,0.367,0.424,0.742,0.619,1.128c1.889,3.754,2.621,8.144,3.633,12.213c0.127,0.515,0.26,1.059,0.396,1.618
		c0.498,2.049,1.031,4.364,1.459,6.78c0.047,0.274,0.092,0.553,0.137,0.83c0.039,0.239,0.082,0.478,0.119,0.719
		c0.049,0.313,0.09,0.626,0.133,0.94c0.027,0.207,0.06,0.414,0.088,0.623c0.32,2.517,0.461,5.047,0.289,7.404
		c-0.006,0.089-0.008,0.181-0.016,0.269c-0.029,0.373-0.078,0.739-0.127,1.102c-0.016,0.11-0.021,0.223-0.037,0.331
		c-0.053,0.343-0.121,0.673-0.189,1.005c-0.025,0.122-0.043,0.25-0.07,0.372c-0.055,0.237-0.127,0.462-0.19,0.692
		c-0.059,0.205-0.105,0.415-0.17,0.615c-0.361-3.507-1.02-9.627-5.035-10.976c-0.76-5.677-2.787-11.825-2.813-17.552
		c0,0.018,0.002,0.036,0.002,0.054c0,0.005,0,0.009,0,0.014c0-0.022-0.002-0.045-0.002-0.067
		c0.031,10.328,1.063,20.636,0.889,31.138c0-0.001,0-0.001,0-0.002v0.002c1.424-3.784,1.51-7.709,2.76-11.522
		c0.127,0.134,0.244,0.275,0.363,0.415c0.059,0.07,0.123,0.136,0.18,0.207c0.148,0.183,0.285,0.374,0.422,0.566
		c0.023,0.033,0.051,0.064,0.072,0.096c0.096,0.138,0.18,0.281,0.27,0.422c0.059,0.093,0.121,0.184,0.178,0.278
		c0.098,0.168,0.189,0.342,0.283,0.515c0.039,0.073,0.082,0.144,0.119,0.219c0.055,0.105,0.102,0.216,0.154,0.324
		c0.191,0.401,0.371,0.812,0.533,1.236c0.072,0.186,0.137,0.378,0.203,0.568c0.029,0.085,0.061,0.167,0.088,0.251
		c0.029,0.086,0.055,0.176,0.082,0.263c0.451,1.418,0.773,2.928,1.043,4.469c0.137,0.795,0.262,1.597,0.381,2.4
		c0.045,0.307,0.09,0.613,0.135,0.919c0.166,2.443,0.684,4.886,1.342,7.233c0.004,0.014,0.008,0.028,0.01,0.042
		c0.477,1.697,1.021,3.344,1.555,4.905c1.731,5.068,1.34,10.719,0.764,15.947c-0.082,0.736-0.18,1.459-0.289,2.169
		c-0.076,0.479-0.166,0.945-0.254,1.413c-0.088,0.466-0.182,0.928-0.279,1.385c-0.098,0.446-0.193,0.896-0.301,1.335
		c-0.02,0.079-0.043,0.155-0.063,0.234c-0.439,0.579-0.879,1.16-1.328,1.733c-2.301,7.067-5.84,13.345-9.107,20.748
		c0.002-0.001,0.002-0.001,0.002-0.001s0,0,0,0.001c4.141-3.404,6.242-9.976,8.488-14.715c2.777,7.461-0.334,19.813-3.201,26.644
		c-0.248,0.589-0.512,1.214-0.779,1.853c-0.004,0.009-0.008,0.017-0.01,0.024c-0.404,0.962-0.82,1.972-1.236,3.022l-0.016,0.043
		c-1.748,4.42-3.418,9.492-3.547,14.148c-0.002,0.048-0.002,0.095-0.002,0.141c-0.01,0.403-0.01,0.803,0.006,1.198
		c-0.066,2.513,0.025,4.946,1.037,9.064c0.232,1.495,0.664,3.188,1.402,5.203c0.223,1.173,0.41,2.447,0.56,3.739
		c-0.191,3.708-0.412,7.685,0.541,10.972C317.385,331.315,317.434,332.579,317.055,333.693z M314.045,390.336
		c0.047,0.979,0.113,1.891,0.197,2.735C314.158,392.227,314.092,391.315,314.045,390.336z M320.416,348.622
		c-0.807,4.938-1.691,10.071-2.75,15.466c-1.375,7.903-3.051,16.261-3.689,24.471c-0.059-2.528-0.006-5.453,0.193-8.819
		c0.715-12.103,3.131-27.244,6.873-43.313c0.656,0.14,1.31,0.279,1.963,0.421C322.219,340.535,321.371,344.435,320.416,348.622z
		 M323.478,334.631c-0.635-0.123-1.277-0.246-1.926-0.367c0.014-0.06,0.027-0.119,0.043-0.178c-0.41-0.09-0.82-0.175-1.229-0.262
		c0.059-0.563,0.076-1.169,0.063-1.801c2.092,0.482,4.18,0.98,6.252,1.526c3.326,0.869,6.635,1.837,9.99,2.781
		c-0.236,0.396-0.488,0.751-0.756,1.049c-4.125-1.016-8.264-1.978-12.406-2.887C323.5,334.538,323.488,334.586,323.478,334.631z
		 M340.219,369.811c-4.844,12.908-10.072,23.797-14.885,29.766c3.902-4.899,7.844-13.049,11.84-23.27
		c4.531-11.586,9.135-25.835,13.828-41.037c2.914-9.439,5.189-19.221,6.781-28.518c2.896-13.946,2.906-20.742,2.652-24.818
		c0.043-1.443,0.057-2.836,0.047-4.179c5.764,0.867,11.217,2.981,16.727,4.846c0.133,0.045,0.262,0.071,0.385,0.089
		c-0.021,1.668-0.088,3.473-0.203,5.434c-0.047,0.784-0.104,1.584-0.162,2.393c-0.023,0.282-0.045,0.567-0.068,0.853
		c-0.043,0.533-0.09,1.073-0.137,1.617c-0.031,0.343-0.063,0.684-0.094,1.029c-0.051,0.532-0.107,1.074-0.164,1.615
		c-0.074,0.728-0.154,1.463-0.24,2.206c-0.035,0.309-0.07,0.616-0.107,0.928c-0.07,0.585-0.145,1.176-0.219,1.771
		c-0.027,0.204-0.053,0.409-0.078,0.614c-0.182,1.389-0.377,2.797-0.588,4.229c-4.756-2.524-6.336-3.669-12.563-6.011
		C359.557,323.789,346.318,356.108,340.219,369.811z M369.756,334.647c-0.412,1.695-0.832,3.396-1.27,5.106
		c-0.65,2.535-1.313,5.016-1.986,7.441C367.621,342.945,368.713,338.736,369.756,334.647z M355.537,385.832
		c0-0.001,0-0.001,0.002-0.002c5.633-12.886,11.084-29.433,15.205-45.497c4.455-17.369,7.477-34.105,8.648-47.727
		c5.016,1.367,15.961,4.543,16.398,4.407c0.121,6.508-0.484,14.741-1.928,24.21c-2.635-1.143-11.32-5.388-13.975-6.478
		C377.594,330.434,359.697,379.161,355.537,385.832z M397.029,329.139c-2.959,11.799-8.326,34.249-16.354,48.911
		c2.115-5.149,4.133-10.712,5.977-16.435c1.846-4.979,3.549-10.417,5.025-16.174c0.203-0.788,0.383-1.583,0.572-2.376
		c1.506-5.821,2.67-11.523,3.068-16.343c0.984-5.563,1.6-9.556,2.08-14.522c0.014-0.119,0.025-0.239,0.039-0.357
		c0.033,0.014,0.08,0.03,0.166,0.059c5.367,1.81,10.34,3.669,15.33,5.39c0.156,0.054,0.303,0.085,0.447,0.102
		c-0.002,3.195-0.502,13.47-0.881,17.107l0,0C412.365,334.455,399.625,330.722,397.029,329.139z M423.621,355.971
		c-0.133,0.494-8.592-2.796-10.19-3.314c-1.975,4.991-7.045,16.569-10.461,21.316c2.033-3.876,3.727-7.881,5.127-11.75
		c1.23-2.934,2.344-6.157,3.281-9.598c1.283-4.717,2.092-9.368,2.408-13.648c3.855,1.897,7.775,3.654,11.629,5.559
		c0.123,0.062,0.242,0.097,0.363,0.135c-0.184,1.726-0.447,3.536-0.803,5.419c0.662-3.482,1.016-6.721,1.1-9.611
		c-0.33-6.786-0.607-11.815-6.088-12.609c-1.832-0.791-1.313-0.024-4.771-0.843c0.135-1.24,0.103-1.03,0.197-2.227
		c0.105,0.028,0.215,0.059,0.32,0.087c2.666,0.728,5.063,1.414,6.098,1.659C427.432,327.869,427.943,340.097,423.621,355.971z"/>
	<path d="M306.047,318.787c-0.129-0.843-0.27-1.68-0.379-2.433c-0.002-0.001-0.006-0.002-0.008-0.003
		c-0.047-0.367-0.088-0.708-0.115-0.997c-0.016-0.176-0.029-0.338-0.037-0.478c-0.158-3.025-0.158-3.025,0.607-9.113l-0.303,1.215
		c-1.887,5.156-1.853,17.182,0.56,19.677c0.518-1.165,0.043-4.82-0.383-7.877C306.01,318.781,306.029,318.784,306.047,318.787z"/>
	<path d="M300.715,310.88c-0.734,5.21-1.832,8.768-1.31,15.538l0.305,0.608c1.555-3.602,1.762-5.275,1.885-7.659
		C301.779,315.772,300.611,314.468,300.715,310.88z"/>
	<path d="M308.279,306.37c-0.469,7.228-0.143,11.902,2.365,17.314c-0.898-2.755-1.012-5.311-0.977-7.917l0.064,0.932
		c-0.029-0.307-0.043-0.627-0.064-0.942c0.031-2.202,0.164-4.441,0.027-6.866c0.504-7.733,2.44-16.271,5.08-22.482
		C311.547,292.298,308.543,300.879,308.279,306.37z"/>
</g>
</svg>
